G04 #@! TF.GenerationSoftware,KiCad,Pcbnew,(5.0.0)*
G04 #@! TF.CreationDate,2019-05-18T10:04:22+12:00*
G04 #@! TF.ProjectId,CNC Shield,434E4320536869656C642E6B69636164,rev?*
G04 #@! TF.SameCoordinates,Original*
G04 #@! TF.FileFunction,Legend,Top*
G04 #@! TF.FilePolarity,Positive*
%FSLAX46Y46*%
G04 Gerber Fmt 4.6, Leading zero omitted, Abs format (unit mm)*
G04 Created by KiCad (PCBNEW (5.0.0)) date 05/18/19 10:04:22*
%MOMM*%
%LPD*%
G01*
G04 APERTURE LIST*
%ADD10C,0.300000*%
%ADD11C,0.250000*%
%ADD12C,0.200000*%
%ADD13C,0.120000*%
%ADD14C,0.150000*%
G04 APERTURE END LIST*
D10*
X113392857Y-108642857D02*
X113607142Y-108714285D01*
X113678571Y-108785714D01*
X113750000Y-108928571D01*
X113750000Y-109142857D01*
X113678571Y-109285714D01*
X113607142Y-109357142D01*
X113464285Y-109428571D01*
X112892857Y-109428571D01*
X112892857Y-107928571D01*
X113392857Y-107928571D01*
X113535714Y-108000000D01*
X113607142Y-108071428D01*
X113678571Y-108214285D01*
X113678571Y-108357142D01*
X113607142Y-108500000D01*
X113535714Y-108571428D01*
X113392857Y-108642857D01*
X112892857Y-108642857D01*
X115178571Y-109428571D02*
X114321428Y-109428571D01*
X114750000Y-109428571D02*
X114750000Y-107928571D01*
X114607142Y-108142857D01*
X114464285Y-108285714D01*
X114321428Y-108357142D01*
X109892857Y-108642857D02*
X110107142Y-108714285D01*
X110178571Y-108785714D01*
X110250000Y-108928571D01*
X110250000Y-109142857D01*
X110178571Y-109285714D01*
X110107142Y-109357142D01*
X109964285Y-109428571D01*
X109392857Y-109428571D01*
X109392857Y-107928571D01*
X109892857Y-107928571D01*
X110035714Y-108000000D01*
X110107142Y-108071428D01*
X110178571Y-108214285D01*
X110178571Y-108357142D01*
X110107142Y-108500000D01*
X110035714Y-108571428D01*
X109892857Y-108642857D01*
X109392857Y-108642857D01*
X110821428Y-108071428D02*
X110892857Y-108000000D01*
X111035714Y-107928571D01*
X111392857Y-107928571D01*
X111535714Y-108000000D01*
X111607142Y-108071428D01*
X111678571Y-108214285D01*
X111678571Y-108357142D01*
X111607142Y-108571428D01*
X110750000Y-109428571D01*
X111678571Y-109428571D01*
X106178571Y-109000000D02*
X106892857Y-109000000D01*
X106035714Y-109428571D02*
X106535714Y-107928571D01*
X107035714Y-109428571D01*
X107464285Y-108071428D02*
X107535714Y-108000000D01*
X107678571Y-107928571D01*
X108035714Y-107928571D01*
X108178571Y-108000000D01*
X108250000Y-108071428D01*
X108321428Y-108214285D01*
X108321428Y-108357142D01*
X108250000Y-108571428D01*
X107392857Y-109428571D01*
X108321428Y-109428571D01*
X102678571Y-109000000D02*
X103392857Y-109000000D01*
X102535714Y-109428571D02*
X103035714Y-107928571D01*
X103535714Y-109428571D01*
X104821428Y-109428571D02*
X103964285Y-109428571D01*
X104392857Y-109428571D02*
X104392857Y-107928571D01*
X104250000Y-108142857D01*
X104107142Y-108285714D01*
X103964285Y-108357142D01*
X139892857Y-107392857D02*
X140107142Y-107464285D01*
X140178571Y-107535714D01*
X140250000Y-107678571D01*
X140250000Y-107892857D01*
X140178571Y-108035714D01*
X140107142Y-108107142D01*
X139964285Y-108178571D01*
X139392857Y-108178571D01*
X139392857Y-106678571D01*
X139892857Y-106678571D01*
X140035714Y-106750000D01*
X140107142Y-106821428D01*
X140178571Y-106964285D01*
X140178571Y-107107142D01*
X140107142Y-107250000D01*
X140035714Y-107321428D01*
X139892857Y-107392857D01*
X139392857Y-107392857D01*
X141678571Y-108178571D02*
X140821428Y-108178571D01*
X141250000Y-108178571D02*
X141250000Y-106678571D01*
X141107142Y-106892857D01*
X140964285Y-107035714D01*
X140821428Y-107107142D01*
X129178571Y-107750000D02*
X129892857Y-107750000D01*
X129035714Y-108178571D02*
X129535714Y-106678571D01*
X130035714Y-108178571D01*
X131321428Y-108178571D02*
X130464285Y-108178571D01*
X130892857Y-108178571D02*
X130892857Y-106678571D01*
X130750000Y-106892857D01*
X130607142Y-107035714D01*
X130464285Y-107107142D01*
X132678571Y-107750000D02*
X133392857Y-107750000D01*
X132535714Y-108178571D02*
X133035714Y-106678571D01*
X133535714Y-108178571D01*
X133964285Y-106821428D02*
X134035714Y-106750000D01*
X134178571Y-106678571D01*
X134535714Y-106678571D01*
X134678571Y-106750000D01*
X134750000Y-106821428D01*
X134821428Y-106964285D01*
X134821428Y-107107142D01*
X134750000Y-107321428D01*
X133892857Y-108178571D01*
X134821428Y-108178571D01*
X136392857Y-107392857D02*
X136607142Y-107464285D01*
X136678571Y-107535714D01*
X136750000Y-107678571D01*
X136750000Y-107892857D01*
X136678571Y-108035714D01*
X136607142Y-108107142D01*
X136464285Y-108178571D01*
X135892857Y-108178571D01*
X135892857Y-106678571D01*
X136392857Y-106678571D01*
X136535714Y-106750000D01*
X136607142Y-106821428D01*
X136678571Y-106964285D01*
X136678571Y-107107142D01*
X136607142Y-107250000D01*
X136535714Y-107321428D01*
X136392857Y-107392857D01*
X135892857Y-107392857D01*
X137321428Y-106821428D02*
X137392857Y-106750000D01*
X137535714Y-106678571D01*
X137892857Y-106678571D01*
X138035714Y-106750000D01*
X138107142Y-106821428D01*
X138178571Y-106964285D01*
X138178571Y-107107142D01*
X138107142Y-107321428D01*
X137250000Y-108178571D01*
X138178571Y-108178571D01*
X166392857Y-107642857D02*
X166607142Y-107714285D01*
X166678571Y-107785714D01*
X166750000Y-107928571D01*
X166750000Y-108142857D01*
X166678571Y-108285714D01*
X166607142Y-108357142D01*
X166464285Y-108428571D01*
X165892857Y-108428571D01*
X165892857Y-106928571D01*
X166392857Y-106928571D01*
X166535714Y-107000000D01*
X166607142Y-107071428D01*
X166678571Y-107214285D01*
X166678571Y-107357142D01*
X166607142Y-107500000D01*
X166535714Y-107571428D01*
X166392857Y-107642857D01*
X165892857Y-107642857D01*
X168178571Y-108428571D02*
X167321428Y-108428571D01*
X167750000Y-108428571D02*
X167750000Y-106928571D01*
X167607142Y-107142857D01*
X167464285Y-107285714D01*
X167321428Y-107357142D01*
X162892857Y-107642857D02*
X163107142Y-107714285D01*
X163178571Y-107785714D01*
X163250000Y-107928571D01*
X163250000Y-108142857D01*
X163178571Y-108285714D01*
X163107142Y-108357142D01*
X162964285Y-108428571D01*
X162392857Y-108428571D01*
X162392857Y-106928571D01*
X162892857Y-106928571D01*
X163035714Y-107000000D01*
X163107142Y-107071428D01*
X163178571Y-107214285D01*
X163178571Y-107357142D01*
X163107142Y-107500000D01*
X163035714Y-107571428D01*
X162892857Y-107642857D01*
X162392857Y-107642857D01*
X163821428Y-107071428D02*
X163892857Y-107000000D01*
X164035714Y-106928571D01*
X164392857Y-106928571D01*
X164535714Y-107000000D01*
X164607142Y-107071428D01*
X164678571Y-107214285D01*
X164678571Y-107357142D01*
X164607142Y-107571428D01*
X163750000Y-108428571D01*
X164678571Y-108428571D01*
X159178571Y-108000000D02*
X159892857Y-108000000D01*
X159035714Y-108428571D02*
X159535714Y-106928571D01*
X160035714Y-108428571D01*
X160464285Y-107071428D02*
X160535714Y-107000000D01*
X160678571Y-106928571D01*
X161035714Y-106928571D01*
X161178571Y-107000000D01*
X161250000Y-107071428D01*
X161321428Y-107214285D01*
X161321428Y-107357142D01*
X161250000Y-107571428D01*
X160392857Y-108428571D01*
X161321428Y-108428571D01*
X155678571Y-108000000D02*
X156392857Y-108000000D01*
X155535714Y-108428571D02*
X156035714Y-106928571D01*
X156535714Y-108428571D01*
X157821428Y-108428571D02*
X156964285Y-108428571D01*
X157392857Y-108428571D02*
X157392857Y-106928571D01*
X157250000Y-107142857D01*
X157107142Y-107285714D01*
X156964285Y-107357142D01*
D11*
X163642857Y-50642857D02*
X163690476Y-50595238D01*
X163833333Y-50547619D01*
X163928571Y-50547619D01*
X164071428Y-50595238D01*
X164166666Y-50690476D01*
X164214285Y-50785714D01*
X164261904Y-50976190D01*
X164261904Y-51119047D01*
X164214285Y-51309523D01*
X164166666Y-51404761D01*
X164071428Y-51500000D01*
X163928571Y-51547619D01*
X163833333Y-51547619D01*
X163690476Y-51500000D01*
X163642857Y-51452380D01*
X163023809Y-51547619D02*
X162833333Y-51547619D01*
X162738095Y-51500000D01*
X162642857Y-51404761D01*
X162595238Y-51214285D01*
X162595238Y-50880952D01*
X162642857Y-50690476D01*
X162738095Y-50595238D01*
X162833333Y-50547619D01*
X163023809Y-50547619D01*
X163119047Y-50595238D01*
X163214285Y-50690476D01*
X163261904Y-50880952D01*
X163261904Y-51214285D01*
X163214285Y-51404761D01*
X163119047Y-51500000D01*
X163023809Y-51547619D01*
X161976190Y-51547619D02*
X161785714Y-51547619D01*
X161690476Y-51500000D01*
X161595238Y-51404761D01*
X161547619Y-51214285D01*
X161547619Y-50880952D01*
X161595238Y-50690476D01*
X161690476Y-50595238D01*
X161785714Y-50547619D01*
X161976190Y-50547619D01*
X162071428Y-50595238D01*
X162166666Y-50690476D01*
X162214285Y-50880952D01*
X162214285Y-51214285D01*
X162166666Y-51404761D01*
X162071428Y-51500000D01*
X161976190Y-51547619D01*
X160642857Y-50547619D02*
X161119047Y-50547619D01*
X161119047Y-51547619D01*
X160476190Y-49345238D02*
X160333333Y-49297619D01*
X160095238Y-49297619D01*
X160000000Y-49345238D01*
X159952380Y-49392857D01*
X159904761Y-49488095D01*
X159904761Y-49583333D01*
X159952380Y-49678571D01*
X160000000Y-49726190D01*
X160095238Y-49773809D01*
X160285714Y-49821428D01*
X160380952Y-49869047D01*
X160428571Y-49916666D01*
X160476190Y-50011904D01*
X160476190Y-50107142D01*
X160428571Y-50202380D01*
X160380952Y-50250000D01*
X160285714Y-50297619D01*
X160047619Y-50297619D01*
X159904761Y-50250000D01*
X159619047Y-50297619D02*
X159047619Y-50297619D01*
X159333333Y-49297619D02*
X159333333Y-50297619D01*
X158761904Y-49583333D02*
X158285714Y-49583333D01*
X158857142Y-49297619D02*
X158523809Y-50297619D01*
X158190476Y-49297619D01*
X157285714Y-49297619D02*
X157619047Y-49773809D01*
X157857142Y-49297619D02*
X157857142Y-50297619D01*
X157476190Y-50297619D01*
X157380952Y-50250000D01*
X157333333Y-50202380D01*
X157285714Y-50107142D01*
X157285714Y-49964285D01*
X157333333Y-49869047D01*
X157380952Y-49821428D01*
X157476190Y-49773809D01*
X157857142Y-49773809D01*
X157000000Y-50297619D02*
X156428571Y-50297619D01*
X156714285Y-49297619D02*
X156714285Y-50297619D01*
X156761904Y-51321428D02*
X157095238Y-51321428D01*
X157095238Y-50797619D02*
X157095238Y-51797619D01*
X156619047Y-51797619D01*
X156238095Y-51321428D02*
X155904761Y-51321428D01*
X155761904Y-50797619D02*
X156238095Y-50797619D01*
X156238095Y-51797619D01*
X155761904Y-51797619D01*
X155333333Y-51321428D02*
X155000000Y-51321428D01*
X154857142Y-50797619D02*
X155333333Y-50797619D01*
X155333333Y-51797619D01*
X154857142Y-51797619D01*
X154428571Y-50797619D02*
X154428571Y-51797619D01*
X154190476Y-51797619D01*
X154047619Y-51750000D01*
X153952380Y-51654761D01*
X153904761Y-51559523D01*
X153857142Y-51369047D01*
X153857142Y-51226190D01*
X153904761Y-51035714D01*
X153952380Y-50940476D01*
X154047619Y-50845238D01*
X154190476Y-50797619D01*
X154428571Y-50797619D01*
X152547619Y-49297619D02*
X152880952Y-49773809D01*
X153119047Y-49297619D02*
X153119047Y-50297619D01*
X152738095Y-50297619D01*
X152642857Y-50250000D01*
X152595238Y-50202380D01*
X152547619Y-50107142D01*
X152547619Y-49964285D01*
X152595238Y-49869047D01*
X152642857Y-49821428D01*
X152738095Y-49773809D01*
X153119047Y-49773809D01*
X152166666Y-49345238D02*
X152023809Y-49297619D01*
X151785714Y-49297619D01*
X151690476Y-49345238D01*
X151642857Y-49392857D01*
X151595238Y-49488095D01*
X151595238Y-49583333D01*
X151642857Y-49678571D01*
X151690476Y-49726190D01*
X151785714Y-49773809D01*
X151976190Y-49821428D01*
X152071428Y-49869047D01*
X152119047Y-49916666D01*
X152166666Y-50011904D01*
X152166666Y-50107142D01*
X152119047Y-50202380D01*
X152071428Y-50250000D01*
X151976190Y-50297619D01*
X151738095Y-50297619D01*
X151595238Y-50250000D01*
X151309523Y-50297619D02*
X150738095Y-50297619D01*
X151023809Y-49297619D02*
X151023809Y-50297619D01*
D10*
X135535714Y-49964285D02*
X135607142Y-49892857D01*
X135821428Y-49821428D01*
X135964285Y-49821428D01*
X136178571Y-49892857D01*
X136321428Y-50035714D01*
X136392857Y-50178571D01*
X136464285Y-50464285D01*
X136464285Y-50678571D01*
X136392857Y-50964285D01*
X136321428Y-51107142D01*
X136178571Y-51250000D01*
X135964285Y-51321428D01*
X135821428Y-51321428D01*
X135607142Y-51250000D01*
X135535714Y-51178571D01*
X139750000Y-49821428D02*
X140464285Y-49821428D01*
X140464285Y-51321428D01*
X139392857Y-51321428D02*
X138392857Y-51321428D01*
X139392857Y-49821428D01*
X138392857Y-49821428D01*
X143178571Y-49821428D02*
X143892857Y-49821428D01*
X143892857Y-51321428D01*
X142392857Y-50535714D02*
X142392857Y-49821428D01*
X142892857Y-51321428D02*
X142392857Y-50535714D01*
X141892857Y-51321428D01*
X146750000Y-49821428D02*
X147464285Y-49821428D01*
X147464285Y-51321428D01*
X146392857Y-51321428D02*
X145392857Y-49821428D01*
X145392857Y-51321428D02*
X146392857Y-49821428D01*
X94607142Y-50607142D02*
X95750000Y-50607142D01*
X95178571Y-51178571D02*
X95178571Y-50035714D01*
X98750000Y-50607142D02*
X99892857Y-50607142D01*
X131821428Y-49642857D02*
X131607142Y-49571428D01*
X131250000Y-49571428D01*
X131107142Y-49642857D01*
X131035714Y-49714285D01*
X130964285Y-49857142D01*
X130964285Y-50000000D01*
X131035714Y-50142857D01*
X131107142Y-50214285D01*
X131250000Y-50285714D01*
X131535714Y-50357142D01*
X131678571Y-50428571D01*
X131750000Y-50500000D01*
X131821428Y-50642857D01*
X131821428Y-50785714D01*
X131750000Y-50928571D01*
X131678571Y-51000000D01*
X131535714Y-51071428D01*
X131178571Y-51071428D01*
X130964285Y-51000000D01*
X130321428Y-50142857D02*
X129178571Y-50142857D01*
X127392857Y-49642857D02*
X127178571Y-49571428D01*
X126821428Y-49571428D01*
X126678571Y-49642857D01*
X126607142Y-49714285D01*
X126535714Y-49857142D01*
X126535714Y-50000000D01*
X126607142Y-50142857D01*
X126678571Y-50214285D01*
X126821428Y-50285714D01*
X127107142Y-50357142D01*
X127250000Y-50428571D01*
X127321428Y-50500000D01*
X127392857Y-50642857D01*
X127392857Y-50785714D01*
X127321428Y-50928571D01*
X127250000Y-51000000D01*
X127107142Y-51071428D01*
X126750000Y-51071428D01*
X126535714Y-51000000D01*
X125892857Y-50142857D02*
X124750000Y-50142857D01*
X125321428Y-49571428D02*
X125321428Y-50714285D01*
D12*
X150500000Y-68500000D02*
X136000000Y-68500000D01*
X136000000Y-66000000D02*
X150500000Y-66000000D01*
D10*
X137937857Y-65378571D02*
X137080714Y-65378571D01*
X137509285Y-65378571D02*
X137509285Y-63878571D01*
X137366428Y-64092857D01*
X137223571Y-64235714D01*
X137080714Y-64307142D01*
X141652142Y-65378571D02*
X140795000Y-65378571D01*
X141223571Y-65378571D02*
X141223571Y-63878571D01*
X141080714Y-64092857D01*
X140937857Y-64235714D01*
X140795000Y-64307142D01*
X145366428Y-65378571D02*
X144509285Y-65378571D01*
X144937857Y-65378571D02*
X144937857Y-63878571D01*
X144795000Y-64092857D01*
X144652142Y-64235714D01*
X144509285Y-64307142D01*
X147080714Y-63807142D02*
X145795000Y-65735714D01*
X148223571Y-64378571D02*
X148223571Y-65378571D01*
X147866428Y-63807142D02*
X147509285Y-64878571D01*
X148437857Y-64878571D01*
X137437857Y-66428571D02*
X137580714Y-66428571D01*
X137723571Y-66500000D01*
X137795000Y-66571428D01*
X137866428Y-66714285D01*
X137937857Y-67000000D01*
X137937857Y-67357142D01*
X137866428Y-67642857D01*
X137795000Y-67785714D01*
X137723571Y-67857142D01*
X137580714Y-67928571D01*
X137437857Y-67928571D01*
X137295000Y-67857142D01*
X137223571Y-67785714D01*
X137152142Y-67642857D01*
X137080714Y-67357142D01*
X137080714Y-67000000D01*
X137152142Y-66714285D01*
X137223571Y-66571428D01*
X137295000Y-66500000D01*
X137437857Y-66428571D01*
X141152142Y-66428571D02*
X141295000Y-66428571D01*
X141437857Y-66500000D01*
X141509285Y-66571428D01*
X141580714Y-66714285D01*
X141652142Y-67000000D01*
X141652142Y-67357142D01*
X141580714Y-67642857D01*
X141509285Y-67785714D01*
X141437857Y-67857142D01*
X141295000Y-67928571D01*
X141152142Y-67928571D01*
X141009285Y-67857142D01*
X140937857Y-67785714D01*
X140866428Y-67642857D01*
X140795000Y-67357142D01*
X140795000Y-67000000D01*
X140866428Y-66714285D01*
X140937857Y-66571428D01*
X141009285Y-66500000D01*
X141152142Y-66428571D01*
X145366428Y-67928571D02*
X144509285Y-67928571D01*
X144937857Y-67928571D02*
X144937857Y-66428571D01*
X144795000Y-66642857D01*
X144652142Y-66785714D01*
X144509285Y-66857142D01*
X147080714Y-66357142D02*
X145795000Y-68285714D01*
X147795000Y-67071428D02*
X147652142Y-67000000D01*
X147580714Y-66928571D01*
X147509285Y-66785714D01*
X147509285Y-66714285D01*
X147580714Y-66571428D01*
X147652142Y-66500000D01*
X147795000Y-66428571D01*
X148080714Y-66428571D01*
X148223571Y-66500000D01*
X148295000Y-66571428D01*
X148366428Y-66714285D01*
X148366428Y-66785714D01*
X148295000Y-66928571D01*
X148223571Y-67000000D01*
X148080714Y-67071428D01*
X147795000Y-67071428D01*
X147652142Y-67142857D01*
X147580714Y-67214285D01*
X147509285Y-67357142D01*
X147509285Y-67642857D01*
X147580714Y-67785714D01*
X147652142Y-67857142D01*
X147795000Y-67928571D01*
X148080714Y-67928571D01*
X148223571Y-67857142D01*
X148295000Y-67785714D01*
X148366428Y-67642857D01*
X148366428Y-67357142D01*
X148295000Y-67214285D01*
X148223571Y-67142857D01*
X148080714Y-67071428D01*
X137437857Y-68978571D02*
X137580714Y-68978571D01*
X137723571Y-69050000D01*
X137795000Y-69121428D01*
X137866428Y-69264285D01*
X137937857Y-69550000D01*
X137937857Y-69907142D01*
X137866428Y-70192857D01*
X137795000Y-70335714D01*
X137723571Y-70407142D01*
X137580714Y-70478571D01*
X137437857Y-70478571D01*
X137295000Y-70407142D01*
X137223571Y-70335714D01*
X137152142Y-70192857D01*
X137080714Y-69907142D01*
X137080714Y-69550000D01*
X137152142Y-69264285D01*
X137223571Y-69121428D01*
X137295000Y-69050000D01*
X137437857Y-68978571D01*
X141652142Y-70478571D02*
X140795000Y-70478571D01*
X141223571Y-70478571D02*
X141223571Y-68978571D01*
X141080714Y-69192857D01*
X140937857Y-69335714D01*
X140795000Y-69407142D01*
X145366428Y-70478571D02*
X144509285Y-70478571D01*
X144937857Y-70478571D02*
X144937857Y-68978571D01*
X144795000Y-69192857D01*
X144652142Y-69335714D01*
X144509285Y-69407142D01*
X147080714Y-68907142D02*
X145795000Y-70835714D01*
X148366428Y-70478571D02*
X147509285Y-70478571D01*
X147937857Y-70478571D02*
X147937857Y-68978571D01*
X147795000Y-69192857D01*
X147652142Y-69335714D01*
X147509285Y-69407142D01*
X149652142Y-68978571D02*
X149366428Y-68978571D01*
X149223571Y-69050000D01*
X149152142Y-69121428D01*
X149009285Y-69335714D01*
X148937857Y-69621428D01*
X148937857Y-70192857D01*
X149009285Y-70335714D01*
X149080714Y-70407142D01*
X149223571Y-70478571D01*
X149509285Y-70478571D01*
X149652142Y-70407142D01*
X149723571Y-70335714D01*
X149795000Y-70192857D01*
X149795000Y-69835714D01*
X149723571Y-69692857D01*
X149652142Y-69621428D01*
X149509285Y-69550000D01*
X149223571Y-69550000D01*
X149080714Y-69621428D01*
X149009285Y-69692857D01*
X148937857Y-69835714D01*
D12*
X143000000Y-71250000D02*
X143000000Y-63250000D01*
X139500000Y-71250000D02*
X143000000Y-71250000D01*
X136000000Y-71250000D02*
X136000000Y-63250000D01*
X150500000Y-71250000D02*
X136000000Y-71250000D01*
X150500000Y-63250000D02*
X150500000Y-71250000D01*
X136000000Y-63250000D02*
X150500000Y-63250000D01*
D10*
X101828571Y-64128571D02*
X101971428Y-64128571D01*
X102114285Y-64200000D01*
X102185714Y-64271428D01*
X102257142Y-64414285D01*
X102328571Y-64700000D01*
X102328571Y-65057142D01*
X102257142Y-65342857D01*
X102185714Y-65485714D01*
X102114285Y-65557142D01*
X101971428Y-65628571D01*
X101828571Y-65628571D01*
X101685714Y-65557142D01*
X101614285Y-65485714D01*
X101542857Y-65342857D01*
X101471428Y-65057142D01*
X101471428Y-64700000D01*
X101542857Y-64414285D01*
X101614285Y-64271428D01*
X101685714Y-64200000D01*
X101828571Y-64128571D01*
X102328571Y-70728571D02*
X101471428Y-70728571D01*
X101900000Y-70728571D02*
X101900000Y-69228571D01*
X101757142Y-69442857D01*
X101614285Y-69585714D01*
X101471428Y-69657142D01*
X152328571Y-63728571D02*
X152471428Y-63728571D01*
X152614285Y-63800000D01*
X152685714Y-63871428D01*
X152757142Y-64014285D01*
X152828571Y-64300000D01*
X152828571Y-64657142D01*
X152757142Y-64942857D01*
X152685714Y-65085714D01*
X152614285Y-65157142D01*
X152471428Y-65228571D01*
X152328571Y-65228571D01*
X152185714Y-65157142D01*
X152114285Y-65085714D01*
X152042857Y-64942857D01*
X151971428Y-64657142D01*
X151971428Y-64300000D01*
X152042857Y-64014285D01*
X152114285Y-63871428D01*
X152185714Y-63800000D01*
X152328571Y-63728571D01*
X152828571Y-70328571D02*
X151971428Y-70328571D01*
X152400000Y-70328571D02*
X152400000Y-68828571D01*
X152257142Y-69042857D01*
X152114285Y-69185714D01*
X151971428Y-69257142D01*
X125828571Y-63828571D02*
X125971428Y-63828571D01*
X126114285Y-63900000D01*
X126185714Y-63971428D01*
X126257142Y-64114285D01*
X126328571Y-64400000D01*
X126328571Y-64757142D01*
X126257142Y-65042857D01*
X126185714Y-65185714D01*
X126114285Y-65257142D01*
X125971428Y-65328571D01*
X125828571Y-65328571D01*
X125685714Y-65257142D01*
X125614285Y-65185714D01*
X125542857Y-65042857D01*
X125471428Y-64757142D01*
X125471428Y-64400000D01*
X125542857Y-64114285D01*
X125614285Y-63971428D01*
X125685714Y-63900000D01*
X125828571Y-63828571D01*
X126328571Y-70428571D02*
X125471428Y-70428571D01*
X125900000Y-70428571D02*
X125900000Y-68928571D01*
X125757142Y-69142857D01*
X125614285Y-69285714D01*
X125471428Y-69357142D01*
X166350000Y-69471428D02*
X166278571Y-69614285D01*
X166278571Y-69828571D01*
X166350000Y-70042857D01*
X166492857Y-70185714D01*
X166635714Y-70257142D01*
X166921428Y-70328571D01*
X167135714Y-70328571D01*
X167421428Y-70257142D01*
X167564285Y-70185714D01*
X167707142Y-70042857D01*
X167778571Y-69828571D01*
X167778571Y-69685714D01*
X167707142Y-69471428D01*
X167635714Y-69400000D01*
X167135714Y-69400000D01*
X167135714Y-69685714D01*
X167778571Y-67900000D02*
X167064285Y-68400000D01*
X167778571Y-68757142D02*
X166278571Y-68757142D01*
X166278571Y-68185714D01*
X166350000Y-68042857D01*
X166421428Y-67971428D01*
X166564285Y-67900000D01*
X166778571Y-67900000D01*
X166921428Y-67971428D01*
X166992857Y-68042857D01*
X167064285Y-68185714D01*
X167064285Y-68757142D01*
X166278571Y-67471428D02*
X167778571Y-66971428D01*
X166278571Y-66471428D01*
X167778571Y-65114285D02*
X167064285Y-65614285D01*
X167778571Y-65971428D02*
X166278571Y-65971428D01*
X166278571Y-65400000D01*
X166350000Y-65257142D01*
X166421428Y-65185714D01*
X166564285Y-65114285D01*
X166778571Y-65114285D01*
X166921428Y-65185714D01*
X166992857Y-65257142D01*
X167064285Y-65400000D01*
X167064285Y-65971428D01*
X167778571Y-62471428D02*
X167064285Y-62971428D01*
X167778571Y-63328571D02*
X166278571Y-63328571D01*
X166278571Y-62757142D01*
X166350000Y-62614285D01*
X166421428Y-62542857D01*
X166564285Y-62471428D01*
X166778571Y-62471428D01*
X166921428Y-62542857D01*
X166992857Y-62614285D01*
X167064285Y-62757142D01*
X167064285Y-63328571D01*
X167707142Y-61257142D02*
X167778571Y-61400000D01*
X167778571Y-61685714D01*
X167707142Y-61828571D01*
X167564285Y-61900000D01*
X166992857Y-61900000D01*
X166850000Y-61828571D01*
X166778571Y-61685714D01*
X166778571Y-61400000D01*
X166850000Y-61257142D01*
X166992857Y-61185714D01*
X167135714Y-61185714D01*
X167278571Y-61900000D01*
X166778571Y-60685714D02*
X167778571Y-60328571D01*
X166778571Y-59971428D01*
X167778571Y-57471428D02*
X167778571Y-58328571D01*
X167778571Y-57900000D02*
X166278571Y-57900000D01*
X166492857Y-58042857D01*
X166635714Y-58185714D01*
X166707142Y-58328571D01*
X168950000Y-69542857D02*
X168878571Y-69685714D01*
X168878571Y-69900000D01*
X168950000Y-70114285D01*
X169092857Y-70257142D01*
X169235714Y-70328571D01*
X169521428Y-70400000D01*
X169735714Y-70400000D01*
X170021428Y-70328571D01*
X170164285Y-70257142D01*
X170307142Y-70114285D01*
X170378571Y-69900000D01*
X170378571Y-69757142D01*
X170307142Y-69542857D01*
X170235714Y-69471428D01*
X169735714Y-69471428D01*
X169735714Y-69757142D01*
X170378571Y-68828571D02*
X169378571Y-68828571D01*
X169664285Y-68828571D02*
X169521428Y-68757142D01*
X169450000Y-68685714D01*
X169378571Y-68542857D01*
X169378571Y-68400000D01*
X170378571Y-67257142D02*
X169592857Y-67257142D01*
X169450000Y-67328571D01*
X169378571Y-67471428D01*
X169378571Y-67757142D01*
X169450000Y-67900000D01*
X170307142Y-67257142D02*
X170378571Y-67400000D01*
X170378571Y-67757142D01*
X170307142Y-67900000D01*
X170164285Y-67971428D01*
X170021428Y-67971428D01*
X169878571Y-67900000D01*
X169807142Y-67757142D01*
X169807142Y-67400000D01*
X169735714Y-67257142D01*
X169378571Y-66542857D02*
X170378571Y-66542857D01*
X169521428Y-66542857D02*
X169450000Y-66471428D01*
X169378571Y-66328571D01*
X169378571Y-66114285D01*
X169450000Y-65971428D01*
X169592857Y-65900000D01*
X170378571Y-65900000D01*
X169378571Y-65400000D02*
X169378571Y-64828571D01*
X168878571Y-65185714D02*
X170164285Y-65185714D01*
X170307142Y-65114285D01*
X170378571Y-64971428D01*
X170378571Y-64828571D01*
X169592857Y-63185714D02*
X169592857Y-62685714D01*
X170378571Y-62471428D02*
X170378571Y-63185714D01*
X168878571Y-63185714D01*
X168878571Y-62471428D01*
X170378571Y-61614285D02*
X170307142Y-61757142D01*
X170164285Y-61828571D01*
X168878571Y-61828571D01*
X170307142Y-60471428D02*
X170378571Y-60614285D01*
X170378571Y-60900000D01*
X170307142Y-61042857D01*
X170164285Y-61114285D01*
X169592857Y-61114285D01*
X169450000Y-61042857D01*
X169378571Y-60900000D01*
X169378571Y-60614285D01*
X169450000Y-60471428D01*
X169592857Y-60400000D01*
X169735714Y-60400000D01*
X169878571Y-61114285D01*
X170307142Y-59114285D02*
X170378571Y-59257142D01*
X170378571Y-59542857D01*
X170307142Y-59685714D01*
X170235714Y-59757142D01*
X170092857Y-59828571D01*
X169664285Y-59828571D01*
X169521428Y-59757142D01*
X169450000Y-59685714D01*
X169378571Y-59542857D01*
X169378571Y-59257142D01*
X169450000Y-59114285D01*
X169378571Y-58685714D02*
X169378571Y-58114285D01*
X168878571Y-58471428D02*
X170164285Y-58471428D01*
X170307142Y-58400000D01*
X170378571Y-58257142D01*
X170378571Y-58114285D01*
X170378571Y-57614285D02*
X169378571Y-57614285D01*
X169664285Y-57614285D02*
X169521428Y-57542857D01*
X169450000Y-57471428D01*
X169378571Y-57328571D01*
X169378571Y-57185714D01*
X170378571Y-56471428D02*
X170307142Y-56614285D01*
X170235714Y-56685714D01*
X170092857Y-56757142D01*
X169664285Y-56757142D01*
X169521428Y-56685714D01*
X169450000Y-56614285D01*
X169378571Y-56471428D01*
X169378571Y-56257142D01*
X169450000Y-56114285D01*
X169521428Y-56042857D01*
X169664285Y-55971428D01*
X170092857Y-55971428D01*
X170235714Y-56042857D01*
X170307142Y-56114285D01*
X170378571Y-56257142D01*
X170378571Y-56471428D01*
X169378571Y-55328571D02*
X170378571Y-55328571D01*
X169521428Y-55328571D02*
X169450000Y-55257142D01*
X169378571Y-55114285D01*
X169378571Y-54900000D01*
X169450000Y-54757142D01*
X169592857Y-54685714D01*
X170378571Y-54685714D01*
X170378571Y-53971428D02*
X169378571Y-53971428D01*
X168878571Y-53971428D02*
X168950000Y-54042857D01*
X169021428Y-53971428D01*
X168950000Y-53900000D01*
X168878571Y-53971428D01*
X169021428Y-53971428D01*
X170307142Y-52614285D02*
X170378571Y-52757142D01*
X170378571Y-53042857D01*
X170307142Y-53185714D01*
X170235714Y-53257142D01*
X170092857Y-53328571D01*
X169664285Y-53328571D01*
X169521428Y-53257142D01*
X169450000Y-53185714D01*
X169378571Y-53042857D01*
X169378571Y-52757142D01*
X169450000Y-52614285D01*
X170307142Y-52042857D02*
X170378571Y-51900000D01*
X170378571Y-51614285D01*
X170307142Y-51471428D01*
X170164285Y-51400000D01*
X170092857Y-51400000D01*
X169950000Y-51471428D01*
X169878571Y-51614285D01*
X169878571Y-51828571D01*
X169807142Y-51971428D01*
X169664285Y-52042857D01*
X169592857Y-52042857D01*
X169450000Y-51971428D01*
X169378571Y-51828571D01*
X169378571Y-51614285D01*
X169450000Y-51471428D01*
D13*
G04 #@! TO.C,R5*
X118510000Y-74337221D02*
X118510000Y-74662779D01*
X117490000Y-74337221D02*
X117490000Y-74662779D01*
G04 #@! TO.C,C1*
X95158750Y-91743750D02*
X95946250Y-91743750D01*
X95552500Y-92137500D02*
X95552500Y-91350000D01*
X99745563Y-91110000D02*
X100810000Y-90045563D01*
X95054437Y-91110000D02*
X93990000Y-90045563D01*
X95054437Y-91110000D02*
X96340000Y-91110000D01*
X99745563Y-91110000D02*
X98460000Y-91110000D01*
X100810000Y-90045563D02*
X100810000Y-84290000D01*
X93990000Y-90045563D02*
X93990000Y-84290000D01*
X93990000Y-84290000D02*
X96340000Y-84290000D01*
X100810000Y-84290000D02*
X98460000Y-84290000D01*
G04 #@! TO.C,C2*
X101690000Y-88050279D02*
X101690000Y-87724721D01*
X102710000Y-88050279D02*
X102710000Y-87724721D01*
G04 #@! TO.C,C3*
X114649721Y-93410000D02*
X114975279Y-93410000D01*
X114649721Y-92390000D02*
X114975279Y-92390000D01*
G04 #@! TO.C,C4*
X106199721Y-90190000D02*
X106525279Y-90190000D01*
X106199721Y-91210000D02*
X106525279Y-91210000D01*
G04 #@! TO.C,C5*
X103490000Y-87737221D02*
X103490000Y-88062779D01*
X104510000Y-87737221D02*
X104510000Y-88062779D01*
G04 #@! TO.C,C6*
X116910000Y-82324721D02*
X116910000Y-82650279D01*
X115890000Y-82324721D02*
X115890000Y-82650279D01*
G04 #@! TO.C,C7*
X152910000Y-84390000D02*
X150560000Y-84390000D01*
X146090000Y-84390000D02*
X148440000Y-84390000D01*
X146090000Y-90145563D02*
X146090000Y-84390000D01*
X152910000Y-90145563D02*
X152910000Y-84390000D01*
X151845563Y-91210000D02*
X150560000Y-91210000D01*
X147154437Y-91210000D02*
X148440000Y-91210000D01*
X147154437Y-91210000D02*
X146090000Y-90145563D01*
X151845563Y-91210000D02*
X152910000Y-90145563D01*
X147652500Y-92237500D02*
X147652500Y-91450000D01*
X147258750Y-91843750D02*
X148046250Y-91843750D01*
G04 #@! TO.C,C8*
X153790000Y-87962779D02*
X153790000Y-87637221D01*
X154810000Y-87962779D02*
X154810000Y-87637221D01*
G04 #@! TO.C,C9*
X166649721Y-92340000D02*
X166975279Y-92340000D01*
X166649721Y-93360000D02*
X166975279Y-93360000D01*
G04 #@! TO.C,C10*
X158237221Y-90710000D02*
X158562779Y-90710000D01*
X158237221Y-89690000D02*
X158562779Y-89690000D01*
G04 #@! TO.C,C11*
X156585000Y-87637221D02*
X156585000Y-87962779D01*
X155565000Y-87637221D02*
X155565000Y-87962779D01*
G04 #@! TO.C,C12*
X168190000Y-82424721D02*
X168190000Y-82750279D01*
X169210000Y-82424721D02*
X169210000Y-82750279D01*
G04 #@! TO.C,C13*
X127010000Y-84340000D02*
X124660000Y-84340000D01*
X120190000Y-84340000D02*
X122540000Y-84340000D01*
X120190000Y-90095563D02*
X120190000Y-84340000D01*
X127010000Y-90095563D02*
X127010000Y-84340000D01*
X125945563Y-91160000D02*
X124660000Y-91160000D01*
X121254437Y-91160000D02*
X122540000Y-91160000D01*
X121254437Y-91160000D02*
X120190000Y-90095563D01*
X125945563Y-91160000D02*
X127010000Y-90095563D01*
X121752500Y-92187500D02*
X121752500Y-91400000D01*
X121358750Y-91793750D02*
X122146250Y-91793750D01*
G04 #@! TO.C,C14*
X127840000Y-87950279D02*
X127840000Y-87624721D01*
X128860000Y-87950279D02*
X128860000Y-87624721D01*
G04 #@! TO.C,C15*
X141374721Y-93260000D02*
X141700279Y-93260000D01*
X141374721Y-92240000D02*
X141700279Y-92240000D01*
G04 #@! TO.C,C16*
X131799721Y-90760000D02*
X132125279Y-90760000D01*
X131799721Y-89740000D02*
X132125279Y-89740000D01*
G04 #@! TO.C,C17*
X129590000Y-87624721D02*
X129590000Y-87950279D01*
X130610000Y-87624721D02*
X130610000Y-87950279D01*
G04 #@! TO.C,C18*
X143110000Y-82324721D02*
X143110000Y-82650279D01*
X142090000Y-82324721D02*
X142090000Y-82650279D01*
G04 #@! TO.C,D1*
X115977500Y-72865000D02*
X113692500Y-72865000D01*
X115977500Y-74335000D02*
X115977500Y-72865000D01*
X113692500Y-74335000D02*
X115977500Y-74335000D01*
G04 #@! TO.C,D2*
X164467500Y-74385000D02*
X166752500Y-74385000D01*
X166752500Y-74385000D02*
X166752500Y-72915000D01*
X166752500Y-72915000D02*
X164467500Y-72915000D01*
G04 #@! TO.C,D3*
X138317500Y-74235000D02*
X140602500Y-74235000D01*
X140602500Y-74235000D02*
X140602500Y-72765000D01*
X140602500Y-72765000D02*
X138317500Y-72765000D01*
D14*
G04 #@! TO.C,D4*
X122100000Y-66050000D02*
X122900000Y-67050000D01*
X122900000Y-67050000D02*
X121300000Y-67050000D01*
X121300000Y-67050000D02*
X122100000Y-66050000D01*
X122100000Y-66050000D02*
X121300000Y-66050000D01*
X121300000Y-66050000D02*
X122900000Y-66050000D01*
X122100000Y-66050000D02*
X122100000Y-65650000D01*
X122100000Y-67050000D02*
X122100000Y-67450000D01*
G04 #@! TO.C,D5*
X122700000Y-55500000D02*
X122700000Y-55900000D01*
X122700000Y-54500000D02*
X122700000Y-54100000D01*
X121900000Y-54500000D02*
X123500000Y-54500000D01*
X122700000Y-54500000D02*
X121900000Y-54500000D01*
X121900000Y-55500000D02*
X122700000Y-54500000D01*
X123500000Y-55500000D02*
X121900000Y-55500000D01*
X122700000Y-54500000D02*
X123500000Y-55500000D01*
G04 #@! TO.C,D6*
X96650000Y-61500000D02*
X97650000Y-60700000D01*
X97650000Y-60700000D02*
X97650000Y-62300000D01*
X97650000Y-62300000D02*
X96650000Y-61500000D01*
X96650000Y-61500000D02*
X96650000Y-62300000D01*
X96650000Y-62300000D02*
X96650000Y-60700000D01*
X96650000Y-61500000D02*
X96250000Y-61500000D01*
X97650000Y-61500000D02*
X98050000Y-61500000D01*
D13*
G04 #@! TO.C,J2*
X113409736Y-102625279D02*
G75*
G02X114300000Y-102370000I890264J-1424721D01*
G01*
X112874495Y-104940193D02*
G75*
G02X112875000Y-103159000I1425505J890193D01*
G01*
X115189894Y-105475358D02*
G75*
G02X113434000Y-105490000I-889894J1425358D01*
G01*
X115725358Y-103160106D02*
G75*
G02X115740000Y-104916000I-1425358J-889894D01*
G01*
X114271326Y-102369901D02*
G75*
G02X115166000Y-102610000I28674J-1680099D01*
G01*
X112480000Y-104050000D02*
G75*
G03X112480000Y-104050000I-1680000J0D01*
G01*
X108980000Y-104050000D02*
G75*
G03X108980000Y-104050000I-1680000J0D01*
G01*
X105480000Y-104050000D02*
G75*
G03X105480000Y-104050000I-1680000J0D01*
G01*
X116110000Y-99950000D02*
X101990000Y-99950000D01*
X116110000Y-101050000D02*
X101990000Y-101050000D01*
X116110000Y-107210000D02*
X101990000Y-107210000D01*
X116110000Y-99490000D02*
X101990000Y-99490000D01*
X116110000Y-107210000D02*
X116110000Y-99490000D01*
X101990000Y-107210000D02*
X101990000Y-99490000D01*
X109525000Y-105119000D02*
X109654000Y-104991000D01*
X111775000Y-102869000D02*
X111869000Y-102776000D01*
X109730000Y-105325000D02*
X109824000Y-105231000D01*
X111945000Y-103109000D02*
X112074000Y-102981000D01*
X106025000Y-105119000D02*
X106154000Y-104991000D01*
X108275000Y-102869000D02*
X108369000Y-102776000D01*
X106230000Y-105325000D02*
X106324000Y-105231000D01*
X108445000Y-103109000D02*
X108574000Y-102981000D01*
X102525000Y-105119000D02*
X102654000Y-104991000D01*
X104775000Y-102869000D02*
X104869000Y-102776000D01*
X102730000Y-105325000D02*
X102824000Y-105231000D01*
X104945000Y-103109000D02*
X105074000Y-102981000D01*
X116350000Y-99890000D02*
X116350000Y-99250000D01*
X116350000Y-99250000D02*
X115950000Y-99250000D01*
G04 #@! TO.C,eJ7*
X93970000Y-71110000D02*
X96630000Y-71110000D01*
X93970000Y-65970000D02*
X93970000Y-71110000D01*
X96630000Y-65970000D02*
X96630000Y-71110000D01*
X93970000Y-65970000D02*
X96630000Y-65970000D01*
X93970000Y-64700000D02*
X93970000Y-63370000D01*
X93970000Y-63370000D02*
X95300000Y-63370000D01*
G04 #@! TO.C,J8*
X97770000Y-71110000D02*
X100430000Y-71110000D01*
X97770000Y-65970000D02*
X97770000Y-71110000D01*
X100430000Y-65970000D02*
X100430000Y-71110000D01*
X97770000Y-65970000D02*
X100430000Y-65970000D01*
X97770000Y-64700000D02*
X97770000Y-63370000D01*
X97770000Y-63370000D02*
X99100000Y-63370000D01*
G04 #@! TO.C,J16*
X169150000Y-99250000D02*
X168750000Y-99250000D01*
X169150000Y-99890000D02*
X169150000Y-99250000D01*
X157745000Y-103109000D02*
X157874000Y-102981000D01*
X155530000Y-105325000D02*
X155624000Y-105231000D01*
X157575000Y-102869000D02*
X157669000Y-102776000D01*
X155325000Y-105119000D02*
X155454000Y-104991000D01*
X161245000Y-103109000D02*
X161374000Y-102981000D01*
X159030000Y-105325000D02*
X159124000Y-105231000D01*
X161075000Y-102869000D02*
X161169000Y-102776000D01*
X158825000Y-105119000D02*
X158954000Y-104991000D01*
X164745000Y-103109000D02*
X164874000Y-102981000D01*
X162530000Y-105325000D02*
X162624000Y-105231000D01*
X164575000Y-102869000D02*
X164669000Y-102776000D01*
X162325000Y-105119000D02*
X162454000Y-104991000D01*
X154790000Y-107210000D02*
X154790000Y-99490000D01*
X168910000Y-107210000D02*
X168910000Y-99490000D01*
X168910000Y-99490000D02*
X154790000Y-99490000D01*
X168910000Y-107210000D02*
X154790000Y-107210000D01*
X168910000Y-101050000D02*
X154790000Y-101050000D01*
X168910000Y-99950000D02*
X154790000Y-99950000D01*
X158280000Y-104050000D02*
G75*
G03X158280000Y-104050000I-1680000J0D01*
G01*
X161780000Y-104050000D02*
G75*
G03X161780000Y-104050000I-1680000J0D01*
G01*
X165280000Y-104050000D02*
G75*
G03X165280000Y-104050000I-1680000J0D01*
G01*
X167071326Y-102369901D02*
G75*
G02X167966000Y-102610000I28674J-1680099D01*
G01*
X168525358Y-103160106D02*
G75*
G02X168540000Y-104916000I-1425358J-889894D01*
G01*
X167989894Y-105475358D02*
G75*
G02X166234000Y-105490000I-889894J1425358D01*
G01*
X165674495Y-104940193D02*
G75*
G02X165675000Y-103159000I1425505J890193D01*
G01*
X166209736Y-102625279D02*
G75*
G02X167100000Y-102370000I890264J-1424721D01*
G01*
G04 #@! TO.C,J21*
X153870000Y-63270000D02*
X155200000Y-63270000D01*
X153870000Y-64600000D02*
X153870000Y-63270000D01*
X153870000Y-65870000D02*
X156530000Y-65870000D01*
X156530000Y-65870000D02*
X156530000Y-71010000D01*
X153870000Y-65870000D02*
X153870000Y-71010000D01*
X153870000Y-71010000D02*
X156530000Y-71010000D01*
G04 #@! TO.C,J22*
X157670000Y-63270000D02*
X159000000Y-63270000D01*
X157670000Y-64600000D02*
X157670000Y-63270000D01*
X157670000Y-65870000D02*
X160330000Y-65870000D01*
X160330000Y-65870000D02*
X160330000Y-71010000D01*
X157670000Y-65870000D02*
X157670000Y-71010000D01*
X157670000Y-71010000D02*
X160330000Y-71010000D01*
G04 #@! TO.C,J30*
X139709736Y-102625279D02*
G75*
G02X140600000Y-102370000I890264J-1424721D01*
G01*
X139174495Y-104940193D02*
G75*
G02X139175000Y-103159000I1425505J890193D01*
G01*
X141489894Y-105475358D02*
G75*
G02X139734000Y-105490000I-889894J1425358D01*
G01*
X142025358Y-103160106D02*
G75*
G02X142040000Y-104916000I-1425358J-889894D01*
G01*
X140571326Y-102369901D02*
G75*
G02X141466000Y-102610000I28674J-1680099D01*
G01*
X138780000Y-104050000D02*
G75*
G03X138780000Y-104050000I-1680000J0D01*
G01*
X135280000Y-104050000D02*
G75*
G03X135280000Y-104050000I-1680000J0D01*
G01*
X131780000Y-104050000D02*
G75*
G03X131780000Y-104050000I-1680000J0D01*
G01*
X142410000Y-99950000D02*
X128290000Y-99950000D01*
X142410000Y-101050000D02*
X128290000Y-101050000D01*
X142410000Y-107210000D02*
X128290000Y-107210000D01*
X142410000Y-99490000D02*
X128290000Y-99490000D01*
X142410000Y-107210000D02*
X142410000Y-99490000D01*
X128290000Y-107210000D02*
X128290000Y-99490000D01*
X135825000Y-105119000D02*
X135954000Y-104991000D01*
X138075000Y-102869000D02*
X138169000Y-102776000D01*
X136030000Y-105325000D02*
X136124000Y-105231000D01*
X138245000Y-103109000D02*
X138374000Y-102981000D01*
X132325000Y-105119000D02*
X132454000Y-104991000D01*
X134575000Y-102869000D02*
X134669000Y-102776000D01*
X132530000Y-105325000D02*
X132624000Y-105231000D01*
X134745000Y-103109000D02*
X134874000Y-102981000D01*
X128825000Y-105119000D02*
X128954000Y-104991000D01*
X131075000Y-102869000D02*
X131169000Y-102776000D01*
X129030000Y-105325000D02*
X129124000Y-105231000D01*
X131245000Y-103109000D02*
X131374000Y-102981000D01*
X142650000Y-99890000D02*
X142650000Y-99250000D01*
X142650000Y-99250000D02*
X142250000Y-99250000D01*
G04 #@! TO.C,J35*
X127670000Y-71110000D02*
X130330000Y-71110000D01*
X127670000Y-65970000D02*
X127670000Y-71110000D01*
X130330000Y-65970000D02*
X130330000Y-71110000D01*
X127670000Y-65970000D02*
X130330000Y-65970000D01*
X127670000Y-64700000D02*
X127670000Y-63370000D01*
X127670000Y-63370000D02*
X129000000Y-63370000D01*
G04 #@! TO.C,J36*
X131470000Y-71110000D02*
X134130000Y-71110000D01*
X131470000Y-65970000D02*
X131470000Y-71110000D01*
X134130000Y-65970000D02*
X134130000Y-71110000D01*
X131470000Y-65970000D02*
X134130000Y-65970000D01*
X131470000Y-64700000D02*
X131470000Y-63370000D01*
X131470000Y-63370000D02*
X132800000Y-63370000D01*
G04 #@! TO.C,J43*
X124700000Y-59800000D02*
X125100000Y-59800000D01*
X124700000Y-59160000D02*
X124700000Y-59800000D01*
X129105000Y-55941000D02*
X128976000Y-56069000D01*
X131320000Y-53725000D02*
X131226000Y-53819000D01*
X129275000Y-56181000D02*
X129181000Y-56274000D01*
X131525000Y-53931000D02*
X131396000Y-54059000D01*
X132060000Y-51840000D02*
X132060000Y-59560000D01*
X124940000Y-51840000D02*
X124940000Y-59560000D01*
X124940000Y-59560000D02*
X132060000Y-59560000D01*
X124940000Y-51840000D02*
X132060000Y-51840000D01*
X124940000Y-58000000D02*
X132060000Y-58000000D01*
X124940000Y-59100000D02*
X132060000Y-59100000D01*
X131930000Y-55000000D02*
G75*
G03X131930000Y-55000000I-1680000J0D01*
G01*
X126778674Y-56680099D02*
G75*
G02X125884000Y-56440000I-28674J1680099D01*
G01*
X125324642Y-55889894D02*
G75*
G02X125310000Y-54134000I1425358J889894D01*
G01*
X125860106Y-53574642D02*
G75*
G02X127616000Y-53560000I889894J-1425358D01*
G01*
X128175505Y-54109807D02*
G75*
G02X128175000Y-55891000I-1425505J-890193D01*
G01*
X127640264Y-56424721D02*
G75*
G02X126750000Y-56680000I-890264J1424721D01*
G01*
G04 #@! TO.C,J44*
X136890264Y-56424721D02*
G75*
G02X136000000Y-56680000I-890264J1424721D01*
G01*
X137425505Y-54109807D02*
G75*
G02X137425000Y-55891000I-1425505J-890193D01*
G01*
X135110106Y-53574642D02*
G75*
G02X136866000Y-53560000I889894J-1425358D01*
G01*
X134574642Y-55889894D02*
G75*
G02X134560000Y-54134000I1425358J889894D01*
G01*
X136028674Y-56680099D02*
G75*
G02X135134000Y-56440000I-28674J1680099D01*
G01*
X141180000Y-55000000D02*
G75*
G03X141180000Y-55000000I-1680000J0D01*
G01*
X144680000Y-55000000D02*
G75*
G03X144680000Y-55000000I-1680000J0D01*
G01*
X148180000Y-55000000D02*
G75*
G03X148180000Y-55000000I-1680000J0D01*
G01*
X134190000Y-59100000D02*
X148310000Y-59100000D01*
X134190000Y-58000000D02*
X148310000Y-58000000D01*
X134190000Y-51840000D02*
X148310000Y-51840000D01*
X134190000Y-59560000D02*
X148310000Y-59560000D01*
X134190000Y-51840000D02*
X134190000Y-59560000D01*
X148310000Y-51840000D02*
X148310000Y-59560000D01*
X140775000Y-53931000D02*
X140646000Y-54059000D01*
X138525000Y-56181000D02*
X138431000Y-56274000D01*
X140570000Y-53725000D02*
X140476000Y-53819000D01*
X138355000Y-55941000D02*
X138226000Y-56069000D01*
X144275000Y-53931000D02*
X144146000Y-54059000D01*
X142025000Y-56181000D02*
X141931000Y-56274000D01*
X144070000Y-53725000D02*
X143976000Y-53819000D01*
X141855000Y-55941000D02*
X141726000Y-56069000D01*
X147775000Y-53931000D02*
X147646000Y-54059000D01*
X145525000Y-56181000D02*
X145431000Y-56274000D01*
X147570000Y-53725000D02*
X147476000Y-53819000D01*
X145355000Y-55941000D02*
X145226000Y-56069000D01*
X133950000Y-59160000D02*
X133950000Y-59800000D01*
X133950000Y-59800000D02*
X134350000Y-59800000D01*
G04 #@! TO.C,J45*
X149950000Y-59800000D02*
X150350000Y-59800000D01*
X149950000Y-59160000D02*
X149950000Y-59800000D01*
X161355000Y-55941000D02*
X161226000Y-56069000D01*
X163570000Y-53725000D02*
X163476000Y-53819000D01*
X161525000Y-56181000D02*
X161431000Y-56274000D01*
X163775000Y-53931000D02*
X163646000Y-54059000D01*
X157855000Y-55941000D02*
X157726000Y-56069000D01*
X160070000Y-53725000D02*
X159976000Y-53819000D01*
X158025000Y-56181000D02*
X157931000Y-56274000D01*
X160275000Y-53931000D02*
X160146000Y-54059000D01*
X154355000Y-55941000D02*
X154226000Y-56069000D01*
X156570000Y-53725000D02*
X156476000Y-53819000D01*
X154525000Y-56181000D02*
X154431000Y-56274000D01*
X156775000Y-53931000D02*
X156646000Y-54059000D01*
X164310000Y-51840000D02*
X164310000Y-59560000D01*
X150190000Y-51840000D02*
X150190000Y-59560000D01*
X150190000Y-59560000D02*
X164310000Y-59560000D01*
X150190000Y-51840000D02*
X164310000Y-51840000D01*
X150190000Y-58000000D02*
X164310000Y-58000000D01*
X150190000Y-59100000D02*
X164310000Y-59100000D01*
X164180000Y-55000000D02*
G75*
G03X164180000Y-55000000I-1680000J0D01*
G01*
X160680000Y-55000000D02*
G75*
G03X160680000Y-55000000I-1680000J0D01*
G01*
X157180000Y-55000000D02*
G75*
G03X157180000Y-55000000I-1680000J0D01*
G01*
X152028674Y-56680099D02*
G75*
G02X151134000Y-56440000I-28674J1680099D01*
G01*
X150574642Y-55889894D02*
G75*
G02X150560000Y-54134000I1425358J889894D01*
G01*
X151110106Y-53574642D02*
G75*
G02X152866000Y-53560000I889894J-1425358D01*
G01*
X153425505Y-54109807D02*
G75*
G02X153425000Y-55891000I-1425505J-890193D01*
G01*
X152890264Y-56424721D02*
G75*
G02X152000000Y-56680000I-890264J1424721D01*
G01*
G04 #@! TO.C,J46*
X96390264Y-56424721D02*
G75*
G02X95500000Y-56680000I-890264J1424721D01*
G01*
X96925505Y-54109807D02*
G75*
G02X96925000Y-55891000I-1425505J-890193D01*
G01*
X94610106Y-53574642D02*
G75*
G02X96366000Y-53560000I889894J-1425358D01*
G01*
X94074642Y-55889894D02*
G75*
G02X94060000Y-54134000I1425358J889894D01*
G01*
X95528674Y-56680099D02*
G75*
G02X94634000Y-56440000I-28674J1680099D01*
G01*
X100680000Y-55000000D02*
G75*
G03X100680000Y-55000000I-1680000J0D01*
G01*
X93690000Y-59100000D02*
X100810000Y-59100000D01*
X93690000Y-58000000D02*
X100810000Y-58000000D01*
X93690000Y-51840000D02*
X100810000Y-51840000D01*
X93690000Y-59560000D02*
X100810000Y-59560000D01*
X93690000Y-51840000D02*
X93690000Y-59560000D01*
X100810000Y-51840000D02*
X100810000Y-59560000D01*
X100275000Y-53931000D02*
X100146000Y-54059000D01*
X98025000Y-56181000D02*
X97931000Y-56274000D01*
X100070000Y-53725000D02*
X99976000Y-53819000D01*
X97855000Y-55941000D02*
X97726000Y-56069000D01*
X93450000Y-59160000D02*
X93450000Y-59800000D01*
X93450000Y-59800000D02*
X93850000Y-59800000D01*
G04 #@! TO.C,K1*
X103250000Y-49250000D02*
X103250000Y-71950000D01*
X103250000Y-71950000D02*
X119950000Y-71950000D01*
X119950000Y-71950000D02*
X119950000Y-49250000D01*
X119950000Y-49250000D02*
X103250000Y-49250000D01*
X111950000Y-66900000D02*
X111250000Y-67300000D01*
X111250000Y-66500000D02*
X111250000Y-67700000D01*
X111250000Y-67700000D02*
X111950000Y-67700000D01*
X111950000Y-67700000D02*
X111950000Y-66500000D01*
X111950000Y-66500000D02*
X111250000Y-66500000D01*
X112600000Y-72210000D02*
X110600000Y-72210000D01*
X116100000Y-67100000D02*
X112950000Y-67100000D01*
X110250000Y-67100000D02*
X107100000Y-67100000D01*
G04 #@! TO.C,Q1*
X121940000Y-71020000D02*
X121940000Y-71950000D01*
X121940000Y-74180000D02*
X121940000Y-73250000D01*
X121940000Y-74180000D02*
X124100000Y-74180000D01*
X121940000Y-71020000D02*
X123400000Y-71020000D01*
G04 #@! TO.C,R1*
X107452064Y-98360000D02*
X106247936Y-98360000D01*
X107452064Y-96540000D02*
X106247936Y-96540000D01*
G04 #@! TO.C,R2*
X107452064Y-94090000D02*
X106247936Y-94090000D01*
X107452064Y-95910000D02*
X106247936Y-95910000D01*
G04 #@! TO.C,R3*
X112747936Y-94090000D02*
X113952064Y-94090000D01*
X112747936Y-95910000D02*
X113952064Y-95910000D01*
G04 #@! TO.C,R4*
X112747936Y-98410000D02*
X113952064Y-98410000D01*
X112747936Y-96590000D02*
X113952064Y-96590000D01*
G04 #@! TO.C,R6*
X120260000Y-74650279D02*
X120260000Y-74324721D01*
X119240000Y-74650279D02*
X119240000Y-74324721D01*
G04 #@! TO.C,R7*
X120260000Y-77587221D02*
X120260000Y-77912779D01*
X119240000Y-77587221D02*
X119240000Y-77912779D01*
G04 #@! TO.C,R8*
X116375279Y-90490000D02*
X116049721Y-90490000D01*
X116375279Y-91510000D02*
X116049721Y-91510000D01*
G04 #@! TO.C,R9*
X116375279Y-89760000D02*
X116049721Y-89760000D01*
X116375279Y-88740000D02*
X116049721Y-88740000D01*
G04 #@! TO.C,R10*
X95375279Y-72960000D02*
X95049721Y-72960000D01*
X95375279Y-71940000D02*
X95049721Y-71940000D01*
G04 #@! TO.C,R11*
X99062779Y-72960000D02*
X98737221Y-72960000D01*
X99062779Y-71940000D02*
X98737221Y-71940000D01*
G04 #@! TO.C,R12*
X114662779Y-79260000D02*
X114337221Y-79260000D01*
X114662779Y-78240000D02*
X114337221Y-78240000D01*
G04 #@! TO.C,R13*
X111440000Y-74662779D02*
X111440000Y-74337221D01*
X112460000Y-74662779D02*
X112460000Y-74337221D01*
G04 #@! TO.C,R14*
X112460000Y-78050279D02*
X112460000Y-77724721D01*
X111440000Y-78050279D02*
X111440000Y-77724721D01*
G04 #@! TO.C,R15*
X114349721Y-76590000D02*
X114675279Y-76590000D01*
X114349721Y-77610000D02*
X114675279Y-77610000D01*
G04 #@! TO.C,R16*
X114349721Y-75860000D02*
X114675279Y-75860000D01*
X114349721Y-74840000D02*
X114675279Y-74840000D01*
G04 #@! TO.C,R17*
X103375279Y-79240000D02*
X103049721Y-79240000D01*
X103375279Y-80260000D02*
X103049721Y-80260000D01*
G04 #@! TO.C,R18*
X103375279Y-78510000D02*
X103049721Y-78510000D01*
X103375279Y-77490000D02*
X103049721Y-77490000D01*
G04 #@! TO.C,R19*
X159602064Y-95910000D02*
X158397936Y-95910000D01*
X159602064Y-94090000D02*
X158397936Y-94090000D01*
G04 #@! TO.C,R20*
X159502064Y-96590000D02*
X158297936Y-96590000D01*
X159502064Y-98410000D02*
X158297936Y-98410000D01*
G04 #@! TO.C,R21*
X164997936Y-96590000D02*
X166202064Y-96590000D01*
X164997936Y-98410000D02*
X166202064Y-98410000D01*
G04 #@! TO.C,R22*
X164897936Y-95910000D02*
X166102064Y-95910000D01*
X164897936Y-94090000D02*
X166102064Y-94090000D01*
G04 #@! TO.C,R23*
X168090000Y-74349721D02*
X168090000Y-74675279D01*
X169110000Y-74349721D02*
X169110000Y-74675279D01*
G04 #@! TO.C,R24*
X169790000Y-74662779D02*
X169790000Y-74337221D01*
X170810000Y-74662779D02*
X170810000Y-74337221D01*
G04 #@! TO.C,R25*
X170910000Y-77862779D02*
X170910000Y-77537221D01*
X169890000Y-77862779D02*
X169890000Y-77537221D01*
G04 #@! TO.C,R26*
X168625279Y-90740000D02*
X168299721Y-90740000D01*
X168625279Y-91760000D02*
X168299721Y-91760000D01*
G04 #@! TO.C,R27*
X168662779Y-88990000D02*
X168337221Y-88990000D01*
X168662779Y-90010000D02*
X168337221Y-90010000D01*
G04 #@! TO.C,R28*
X155362779Y-73010000D02*
X155037221Y-73010000D01*
X155362779Y-71990000D02*
X155037221Y-71990000D01*
G04 #@! TO.C,R29*
X159162779Y-73010000D02*
X158837221Y-73010000D01*
X159162779Y-71990000D02*
X158837221Y-71990000D01*
G04 #@! TO.C,R30*
X165450279Y-79360000D02*
X165124721Y-79360000D01*
X165450279Y-78340000D02*
X165124721Y-78340000D01*
G04 #@! TO.C,R31*
X163260000Y-74912779D02*
X163260000Y-74587221D01*
X162240000Y-74912779D02*
X162240000Y-74587221D01*
G04 #@! TO.C,R32*
X162240000Y-78162779D02*
X162240000Y-77837221D01*
X163260000Y-78162779D02*
X163260000Y-77837221D01*
G04 #@! TO.C,R33*
X165124721Y-77640000D02*
X165450279Y-77640000D01*
X165124721Y-76620000D02*
X165450279Y-76620000D01*
G04 #@! TO.C,R34*
X165124721Y-74900000D02*
X165450279Y-74900000D01*
X165124721Y-75920000D02*
X165450279Y-75920000D01*
G04 #@! TO.C,R35*
X155200279Y-79240000D02*
X154874721Y-79240000D01*
X155200279Y-80260000D02*
X154874721Y-80260000D01*
G04 #@! TO.C,R36*
X155262779Y-78510000D02*
X154937221Y-78510000D01*
X155262779Y-77490000D02*
X154937221Y-77490000D01*
G04 #@! TO.C,R37*
X133702064Y-94090000D02*
X132497936Y-94090000D01*
X133702064Y-95910000D02*
X132497936Y-95910000D01*
G04 #@! TO.C,R38*
X133702064Y-98410000D02*
X132497936Y-98410000D01*
X133702064Y-96590000D02*
X132497936Y-96590000D01*
G04 #@! TO.C,R39*
X138997936Y-98360000D02*
X140202064Y-98360000D01*
X138997936Y-96540000D02*
X140202064Y-96540000D01*
G04 #@! TO.C,R40*
X138997936Y-94090000D02*
X140202064Y-94090000D01*
X138997936Y-95910000D02*
X140202064Y-95910000D01*
G04 #@! TO.C,R41*
X143110000Y-74324721D02*
X143110000Y-74650279D01*
X142090000Y-74324721D02*
X142090000Y-74650279D01*
G04 #@! TO.C,R42*
X143890000Y-74675279D02*
X143890000Y-74349721D01*
X144910000Y-74675279D02*
X144910000Y-74349721D01*
G04 #@! TO.C,R43*
X143890000Y-77875279D02*
X143890000Y-77549721D01*
X144910000Y-77875279D02*
X144910000Y-77549721D01*
G04 #@! TO.C,R44*
X142662779Y-90490000D02*
X142337221Y-90490000D01*
X142662779Y-91510000D02*
X142337221Y-91510000D01*
G04 #@! TO.C,R45*
X142662779Y-88740000D02*
X142337221Y-88740000D01*
X142662779Y-89760000D02*
X142337221Y-89760000D01*
G04 #@! TO.C,R46*
X129162779Y-71990000D02*
X128837221Y-71990000D01*
X129162779Y-73010000D02*
X128837221Y-73010000D01*
G04 #@! TO.C,R47*
X132962779Y-73010000D02*
X132637221Y-73010000D01*
X132962779Y-71990000D02*
X132637221Y-71990000D01*
G04 #@! TO.C,R48*
X139300279Y-78240000D02*
X138974721Y-78240000D01*
X139300279Y-79260000D02*
X138974721Y-79260000D01*
G04 #@! TO.C,R49*
X137110000Y-74862779D02*
X137110000Y-74537221D01*
X136090000Y-74862779D02*
X136090000Y-74537221D01*
G04 #@! TO.C,R50*
X137110000Y-78125279D02*
X137110000Y-77799721D01*
X136090000Y-78125279D02*
X136090000Y-77799721D01*
G04 #@! TO.C,R51*
X138974721Y-77510000D02*
X139300279Y-77510000D01*
X138974721Y-76490000D02*
X139300279Y-76490000D01*
G04 #@! TO.C,R52*
X138974721Y-74740000D02*
X139300279Y-74740000D01*
X138974721Y-75760000D02*
X139300279Y-75760000D01*
G04 #@! TO.C,R53*
X129200279Y-79240000D02*
X128874721Y-79240000D01*
X129200279Y-80260000D02*
X128874721Y-80260000D01*
G04 #@! TO.C,R54*
X129162779Y-78510000D02*
X128837221Y-78510000D01*
X129162779Y-77490000D02*
X128837221Y-77490000D01*
G04 #@! TO.C,R55*
X122524721Y-76110000D02*
X122850279Y-76110000D01*
X122524721Y-75090000D02*
X122850279Y-75090000D01*
D14*
G04 #@! TO.C,U1*
X105450000Y-86575000D02*
X105450000Y-87650000D01*
X115225800Y-86575000D02*
X115225800Y-81925000D01*
X105225000Y-86575000D02*
X105225000Y-81925000D01*
X115225800Y-86575000D02*
X114900800Y-86575000D01*
X115225800Y-81925000D02*
X114900800Y-81925000D01*
X105225000Y-81925000D02*
X105550000Y-81925000D01*
X105225000Y-86575000D02*
X105450000Y-86575000D01*
G04 #@! TO.C,U2*
X157425000Y-86575000D02*
X157650000Y-86575000D01*
X157425000Y-81925000D02*
X157750000Y-81925000D01*
X167425800Y-81925000D02*
X167100800Y-81925000D01*
X167425800Y-86575000D02*
X167100800Y-86575000D01*
X157425000Y-86575000D02*
X157425000Y-81925000D01*
X167425800Y-86575000D02*
X167425800Y-81925000D01*
X157650000Y-86575000D02*
X157650000Y-87650000D01*
G04 #@! TO.C,U3*
X131375000Y-86575000D02*
X131600000Y-86575000D01*
X131375000Y-81925000D02*
X131700000Y-81925000D01*
X141375800Y-81925000D02*
X141050800Y-81925000D01*
X141375800Y-86575000D02*
X141050800Y-86575000D01*
X131375000Y-86575000D02*
X131375000Y-81925000D01*
X141375800Y-86575000D02*
X141375800Y-81925000D01*
X131600000Y-86575000D02*
X131600000Y-87650000D01*
D13*
G04 #@! TO.C,R56*
X115890000Y-85524721D02*
X115890000Y-85850279D01*
X116910000Y-85524721D02*
X116910000Y-85850279D01*
G04 #@! TO.C,R57*
X118510000Y-77587221D02*
X118510000Y-77912779D01*
X117490000Y-77587221D02*
X117490000Y-77912779D01*
G04 #@! TO.C,R58*
X100125279Y-79240000D02*
X99799721Y-79240000D01*
X100125279Y-80260000D02*
X99799721Y-80260000D01*
G04 #@! TO.C,R59*
X100125279Y-78510000D02*
X99799721Y-78510000D01*
X100125279Y-77490000D02*
X99799721Y-77490000D01*
G04 #@! TO.C,R60*
X169210000Y-85624721D02*
X169210000Y-85950279D01*
X168190000Y-85624721D02*
X168190000Y-85950279D01*
G04 #@! TO.C,R61*
X169110000Y-77862779D02*
X169110000Y-77537221D01*
X168090000Y-77862779D02*
X168090000Y-77537221D01*
G04 #@! TO.C,R62*
X151875279Y-79240000D02*
X151549721Y-79240000D01*
X151875279Y-80260000D02*
X151549721Y-80260000D01*
G04 #@! TO.C,R63*
X151950279Y-78510000D02*
X151624721Y-78510000D01*
X151950279Y-77490000D02*
X151624721Y-77490000D01*
G04 #@! TO.C,R64*
X143110000Y-85537221D02*
X143110000Y-85862779D01*
X142090000Y-85537221D02*
X142090000Y-85862779D01*
G04 #@! TO.C,R65*
X143110000Y-77862779D02*
X143110000Y-77537221D01*
X142090000Y-77862779D02*
X142090000Y-77537221D01*
G04 #@! TO.C,R66*
X125950279Y-80260000D02*
X125624721Y-80260000D01*
X125950279Y-79240000D02*
X125624721Y-79240000D01*
G04 #@! TO.C,R67*
X125962779Y-77490000D02*
X125637221Y-77490000D01*
X125962779Y-78510000D02*
X125637221Y-78510000D01*
G04 #@! TO.C,R5*
D14*
X119882380Y-74666666D02*
X119406190Y-75000000D01*
X119882380Y-75238095D02*
X118882380Y-75238095D01*
X118882380Y-74857142D01*
X118930000Y-74761904D01*
X118977619Y-74714285D01*
X119072857Y-74666666D01*
X119215714Y-74666666D01*
X119310952Y-74714285D01*
X119358571Y-74761904D01*
X119406190Y-74857142D01*
X119406190Y-75238095D01*
X118882380Y-73761904D02*
X118882380Y-74238095D01*
X119358571Y-74285714D01*
X119310952Y-74238095D01*
X119263333Y-74142857D01*
X119263333Y-73904761D01*
X119310952Y-73809523D01*
X119358571Y-73761904D01*
X119453809Y-73714285D01*
X119691904Y-73714285D01*
X119787142Y-73761904D01*
X119834761Y-73809523D01*
X119882380Y-73904761D01*
X119882380Y-74142857D01*
X119834761Y-74238095D01*
X119787142Y-74285714D01*
G04 #@! TO.C,C1*
X93407142Y-87866666D02*
X93454761Y-87914285D01*
X93502380Y-88057142D01*
X93502380Y-88152380D01*
X93454761Y-88295238D01*
X93359523Y-88390476D01*
X93264285Y-88438095D01*
X93073809Y-88485714D01*
X92930952Y-88485714D01*
X92740476Y-88438095D01*
X92645238Y-88390476D01*
X92550000Y-88295238D01*
X92502380Y-88152380D01*
X92502380Y-88057142D01*
X92550000Y-87914285D01*
X92597619Y-87866666D01*
X93502380Y-86914285D02*
X93502380Y-87485714D01*
X93502380Y-87200000D02*
X92502380Y-87200000D01*
X92645238Y-87295238D01*
X92740476Y-87390476D01*
X92788095Y-87485714D01*
G04 #@! TO.C,C2*
X101127142Y-88054166D02*
X101174761Y-88101785D01*
X101222380Y-88244642D01*
X101222380Y-88339880D01*
X101174761Y-88482738D01*
X101079523Y-88577976D01*
X100984285Y-88625595D01*
X100793809Y-88673214D01*
X100650952Y-88673214D01*
X100460476Y-88625595D01*
X100365238Y-88577976D01*
X100270000Y-88482738D01*
X100222380Y-88339880D01*
X100222380Y-88244642D01*
X100270000Y-88101785D01*
X100317619Y-88054166D01*
X100317619Y-87673214D02*
X100270000Y-87625595D01*
X100222380Y-87530357D01*
X100222380Y-87292261D01*
X100270000Y-87197023D01*
X100317619Y-87149404D01*
X100412857Y-87101785D01*
X100508095Y-87101785D01*
X100650952Y-87149404D01*
X101222380Y-87720833D01*
X101222380Y-87101785D01*
G04 #@! TO.C,C3*
X114645833Y-91827142D02*
X114598214Y-91874761D01*
X114455357Y-91922380D01*
X114360119Y-91922380D01*
X114217261Y-91874761D01*
X114122023Y-91779523D01*
X114074404Y-91684285D01*
X114026785Y-91493809D01*
X114026785Y-91350952D01*
X114074404Y-91160476D01*
X114122023Y-91065238D01*
X114217261Y-90970000D01*
X114360119Y-90922380D01*
X114455357Y-90922380D01*
X114598214Y-90970000D01*
X114645833Y-91017619D01*
X114979166Y-90922380D02*
X115598214Y-90922380D01*
X115264880Y-91303333D01*
X115407738Y-91303333D01*
X115502976Y-91350952D01*
X115550595Y-91398571D01*
X115598214Y-91493809D01*
X115598214Y-91731904D01*
X115550595Y-91827142D01*
X115502976Y-91874761D01*
X115407738Y-91922380D01*
X115122023Y-91922380D01*
X115026785Y-91874761D01*
X114979166Y-91827142D01*
G04 #@! TO.C,C4*
X106195833Y-89627142D02*
X106148214Y-89674761D01*
X106005357Y-89722380D01*
X105910119Y-89722380D01*
X105767261Y-89674761D01*
X105672023Y-89579523D01*
X105624404Y-89484285D01*
X105576785Y-89293809D01*
X105576785Y-89150952D01*
X105624404Y-88960476D01*
X105672023Y-88865238D01*
X105767261Y-88770000D01*
X105910119Y-88722380D01*
X106005357Y-88722380D01*
X106148214Y-88770000D01*
X106195833Y-88817619D01*
X107052976Y-89055714D02*
X107052976Y-89722380D01*
X106814880Y-88674761D02*
X106576785Y-89389047D01*
X107195833Y-89389047D01*
G04 #@! TO.C,C5*
X105787142Y-88066666D02*
X105834761Y-88114285D01*
X105882380Y-88257142D01*
X105882380Y-88352380D01*
X105834761Y-88495238D01*
X105739523Y-88590476D01*
X105644285Y-88638095D01*
X105453809Y-88685714D01*
X105310952Y-88685714D01*
X105120476Y-88638095D01*
X105025238Y-88590476D01*
X104930000Y-88495238D01*
X104882380Y-88352380D01*
X104882380Y-88257142D01*
X104930000Y-88114285D01*
X104977619Y-88066666D01*
X104882380Y-87161904D02*
X104882380Y-87638095D01*
X105358571Y-87685714D01*
X105310952Y-87638095D01*
X105263333Y-87542857D01*
X105263333Y-87304761D01*
X105310952Y-87209523D01*
X105358571Y-87161904D01*
X105453809Y-87114285D01*
X105691904Y-87114285D01*
X105787142Y-87161904D01*
X105834761Y-87209523D01*
X105882380Y-87304761D01*
X105882380Y-87542857D01*
X105834761Y-87638095D01*
X105787142Y-87685714D01*
G04 #@! TO.C,C6*
X118187142Y-82654166D02*
X118234761Y-82701785D01*
X118282380Y-82844642D01*
X118282380Y-82939880D01*
X118234761Y-83082738D01*
X118139523Y-83177976D01*
X118044285Y-83225595D01*
X117853809Y-83273214D01*
X117710952Y-83273214D01*
X117520476Y-83225595D01*
X117425238Y-83177976D01*
X117330000Y-83082738D01*
X117282380Y-82939880D01*
X117282380Y-82844642D01*
X117330000Y-82701785D01*
X117377619Y-82654166D01*
X117282380Y-81797023D02*
X117282380Y-81987500D01*
X117330000Y-82082738D01*
X117377619Y-82130357D01*
X117520476Y-82225595D01*
X117710952Y-82273214D01*
X118091904Y-82273214D01*
X118187142Y-82225595D01*
X118234761Y-82177976D01*
X118282380Y-82082738D01*
X118282380Y-81892261D01*
X118234761Y-81797023D01*
X118187142Y-81749404D01*
X118091904Y-81701785D01*
X117853809Y-81701785D01*
X117758571Y-81749404D01*
X117710952Y-81797023D01*
X117663333Y-81892261D01*
X117663333Y-82082738D01*
X117710952Y-82177976D01*
X117758571Y-82225595D01*
X117853809Y-82273214D01*
G04 #@! TO.C,C13*
X119607142Y-88392857D02*
X119654761Y-88440476D01*
X119702380Y-88583333D01*
X119702380Y-88678571D01*
X119654761Y-88821428D01*
X119559523Y-88916666D01*
X119464285Y-88964285D01*
X119273809Y-89011904D01*
X119130952Y-89011904D01*
X118940476Y-88964285D01*
X118845238Y-88916666D01*
X118750000Y-88821428D01*
X118702380Y-88678571D01*
X118702380Y-88583333D01*
X118750000Y-88440476D01*
X118797619Y-88392857D01*
X119702380Y-87440476D02*
X119702380Y-88011904D01*
X119702380Y-87726190D02*
X118702380Y-87726190D01*
X118845238Y-87821428D01*
X118940476Y-87916666D01*
X118988095Y-88011904D01*
X118702380Y-87107142D02*
X118702380Y-86488095D01*
X119083333Y-86821428D01*
X119083333Y-86678571D01*
X119130952Y-86583333D01*
X119178571Y-86535714D01*
X119273809Y-86488095D01*
X119511904Y-86488095D01*
X119607142Y-86535714D01*
X119654761Y-86583333D01*
X119702380Y-86678571D01*
X119702380Y-86964285D01*
X119654761Y-87059523D01*
X119607142Y-87107142D01*
G04 #@! TO.C,C14*
X127277142Y-88430357D02*
X127324761Y-88477976D01*
X127372380Y-88620833D01*
X127372380Y-88716071D01*
X127324761Y-88858928D01*
X127229523Y-88954166D01*
X127134285Y-89001785D01*
X126943809Y-89049404D01*
X126800952Y-89049404D01*
X126610476Y-89001785D01*
X126515238Y-88954166D01*
X126420000Y-88858928D01*
X126372380Y-88716071D01*
X126372380Y-88620833D01*
X126420000Y-88477976D01*
X126467619Y-88430357D01*
X127372380Y-87477976D02*
X127372380Y-88049404D01*
X127372380Y-87763690D02*
X126372380Y-87763690D01*
X126515238Y-87858928D01*
X126610476Y-87954166D01*
X126658095Y-88049404D01*
X126705714Y-86620833D02*
X127372380Y-86620833D01*
X126324761Y-86858928D02*
X127039047Y-87097023D01*
X127039047Y-86477976D01*
G04 #@! TO.C,C15*
X140894642Y-91677142D02*
X140847023Y-91724761D01*
X140704166Y-91772380D01*
X140608928Y-91772380D01*
X140466071Y-91724761D01*
X140370833Y-91629523D01*
X140323214Y-91534285D01*
X140275595Y-91343809D01*
X140275595Y-91200952D01*
X140323214Y-91010476D01*
X140370833Y-90915238D01*
X140466071Y-90820000D01*
X140608928Y-90772380D01*
X140704166Y-90772380D01*
X140847023Y-90820000D01*
X140894642Y-90867619D01*
X141847023Y-91772380D02*
X141275595Y-91772380D01*
X141561309Y-91772380D02*
X141561309Y-90772380D01*
X141466071Y-90915238D01*
X141370833Y-91010476D01*
X141275595Y-91058095D01*
X142751785Y-90772380D02*
X142275595Y-90772380D01*
X142227976Y-91248571D01*
X142275595Y-91200952D01*
X142370833Y-91153333D01*
X142608928Y-91153333D01*
X142704166Y-91200952D01*
X142751785Y-91248571D01*
X142799404Y-91343809D01*
X142799404Y-91581904D01*
X142751785Y-91677142D01*
X142704166Y-91724761D01*
X142608928Y-91772380D01*
X142370833Y-91772380D01*
X142275595Y-91724761D01*
X142227976Y-91677142D01*
G04 #@! TO.C,C16*
X131319642Y-89177142D02*
X131272023Y-89224761D01*
X131129166Y-89272380D01*
X131033928Y-89272380D01*
X130891071Y-89224761D01*
X130795833Y-89129523D01*
X130748214Y-89034285D01*
X130700595Y-88843809D01*
X130700595Y-88700952D01*
X130748214Y-88510476D01*
X130795833Y-88415238D01*
X130891071Y-88320000D01*
X131033928Y-88272380D01*
X131129166Y-88272380D01*
X131272023Y-88320000D01*
X131319642Y-88367619D01*
X132272023Y-89272380D02*
X131700595Y-89272380D01*
X131986309Y-89272380D02*
X131986309Y-88272380D01*
X131891071Y-88415238D01*
X131795833Y-88510476D01*
X131700595Y-88558095D01*
X133129166Y-88272380D02*
X132938690Y-88272380D01*
X132843452Y-88320000D01*
X132795833Y-88367619D01*
X132700595Y-88510476D01*
X132652976Y-88700952D01*
X132652976Y-89081904D01*
X132700595Y-89177142D01*
X132748214Y-89224761D01*
X132843452Y-89272380D01*
X133033928Y-89272380D01*
X133129166Y-89224761D01*
X133176785Y-89177142D01*
X133224404Y-89081904D01*
X133224404Y-88843809D01*
X133176785Y-88748571D01*
X133129166Y-88700952D01*
X133033928Y-88653333D01*
X132843452Y-88653333D01*
X132748214Y-88700952D01*
X132700595Y-88748571D01*
X132652976Y-88843809D01*
G04 #@! TO.C,C17*
X131887142Y-88430357D02*
X131934761Y-88477976D01*
X131982380Y-88620833D01*
X131982380Y-88716071D01*
X131934761Y-88858928D01*
X131839523Y-88954166D01*
X131744285Y-89001785D01*
X131553809Y-89049404D01*
X131410952Y-89049404D01*
X131220476Y-89001785D01*
X131125238Y-88954166D01*
X131030000Y-88858928D01*
X130982380Y-88716071D01*
X130982380Y-88620833D01*
X131030000Y-88477976D01*
X131077619Y-88430357D01*
X131982380Y-87477976D02*
X131982380Y-88049404D01*
X131982380Y-87763690D02*
X130982380Y-87763690D01*
X131125238Y-87858928D01*
X131220476Y-87954166D01*
X131268095Y-88049404D01*
X130982380Y-87144642D02*
X130982380Y-86477976D01*
X131982380Y-86906547D01*
G04 #@! TO.C,C18*
X144387142Y-83130357D02*
X144434761Y-83177976D01*
X144482380Y-83320833D01*
X144482380Y-83416071D01*
X144434761Y-83558928D01*
X144339523Y-83654166D01*
X144244285Y-83701785D01*
X144053809Y-83749404D01*
X143910952Y-83749404D01*
X143720476Y-83701785D01*
X143625238Y-83654166D01*
X143530000Y-83558928D01*
X143482380Y-83416071D01*
X143482380Y-83320833D01*
X143530000Y-83177976D01*
X143577619Y-83130357D01*
X144482380Y-82177976D02*
X144482380Y-82749404D01*
X144482380Y-82463690D02*
X143482380Y-82463690D01*
X143625238Y-82558928D01*
X143720476Y-82654166D01*
X143768095Y-82749404D01*
X143910952Y-81606547D02*
X143863333Y-81701785D01*
X143815714Y-81749404D01*
X143720476Y-81797023D01*
X143672857Y-81797023D01*
X143577619Y-81749404D01*
X143530000Y-81701785D01*
X143482380Y-81606547D01*
X143482380Y-81416071D01*
X143530000Y-81320833D01*
X143577619Y-81273214D01*
X143672857Y-81225595D01*
X143720476Y-81225595D01*
X143815714Y-81273214D01*
X143863333Y-81320833D01*
X143910952Y-81416071D01*
X143910952Y-81606547D01*
X143958571Y-81701785D01*
X144006190Y-81749404D01*
X144101428Y-81797023D01*
X144291904Y-81797023D01*
X144387142Y-81749404D01*
X144434761Y-81701785D01*
X144482380Y-81606547D01*
X144482380Y-81416071D01*
X144434761Y-81320833D01*
X144387142Y-81273214D01*
X144291904Y-81225595D01*
X144101428Y-81225595D01*
X144006190Y-81273214D01*
X143958571Y-81320833D01*
X143910952Y-81416071D01*
G04 #@! TO.C,D1*
X113754404Y-75482380D02*
X113754404Y-74482380D01*
X113992500Y-74482380D01*
X114135357Y-74530000D01*
X114230595Y-74625238D01*
X114278214Y-74720476D01*
X114325833Y-74910952D01*
X114325833Y-75053809D01*
X114278214Y-75244285D01*
X114230595Y-75339523D01*
X114135357Y-75434761D01*
X113992500Y-75482380D01*
X113754404Y-75482380D01*
X115278214Y-75482380D02*
X114706785Y-75482380D01*
X114992500Y-75482380D02*
X114992500Y-74482380D01*
X114897261Y-74625238D01*
X114802023Y-74720476D01*
X114706785Y-74768095D01*
G04 #@! TO.C,D2*
X164529404Y-75532380D02*
X164529404Y-74532380D01*
X164767500Y-74532380D01*
X164910357Y-74580000D01*
X165005595Y-74675238D01*
X165053214Y-74770476D01*
X165100833Y-74960952D01*
X165100833Y-75103809D01*
X165053214Y-75294285D01*
X165005595Y-75389523D01*
X164910357Y-75484761D01*
X164767500Y-75532380D01*
X164529404Y-75532380D01*
X165481785Y-74627619D02*
X165529404Y-74580000D01*
X165624642Y-74532380D01*
X165862738Y-74532380D01*
X165957976Y-74580000D01*
X166005595Y-74627619D01*
X166053214Y-74722857D01*
X166053214Y-74818095D01*
X166005595Y-74960952D01*
X165434166Y-75532380D01*
X166053214Y-75532380D01*
G04 #@! TO.C,D3*
X138379404Y-75382380D02*
X138379404Y-74382380D01*
X138617500Y-74382380D01*
X138760357Y-74430000D01*
X138855595Y-74525238D01*
X138903214Y-74620476D01*
X138950833Y-74810952D01*
X138950833Y-74953809D01*
X138903214Y-75144285D01*
X138855595Y-75239523D01*
X138760357Y-75334761D01*
X138617500Y-75382380D01*
X138379404Y-75382380D01*
X139284166Y-74382380D02*
X139903214Y-74382380D01*
X139569880Y-74763333D01*
X139712738Y-74763333D01*
X139807976Y-74810952D01*
X139855595Y-74858571D01*
X139903214Y-74953809D01*
X139903214Y-75191904D01*
X139855595Y-75287142D01*
X139807976Y-75334761D01*
X139712738Y-75382380D01*
X139427023Y-75382380D01*
X139331785Y-75334761D01*
X139284166Y-75287142D01*
G04 #@! TO.C,K1*
X110861904Y-73552380D02*
X110861904Y-72552380D01*
X111433333Y-73552380D02*
X111004761Y-72980952D01*
X111433333Y-72552380D02*
X110861904Y-73123809D01*
X112385714Y-73552380D02*
X111814285Y-73552380D01*
X112100000Y-73552380D02*
X112100000Y-72552380D01*
X112004761Y-72695238D01*
X111909523Y-72790476D01*
X111814285Y-72838095D01*
G04 #@! TO.C,Q1*
X122604761Y-75647619D02*
X122509523Y-75600000D01*
X122414285Y-75504761D01*
X122271428Y-75361904D01*
X122176190Y-75314285D01*
X122080952Y-75314285D01*
X122128571Y-75552380D02*
X122033333Y-75504761D01*
X121938095Y-75409523D01*
X121890476Y-75219047D01*
X121890476Y-74885714D01*
X121938095Y-74695238D01*
X122033333Y-74600000D01*
X122128571Y-74552380D01*
X122319047Y-74552380D01*
X122414285Y-74600000D01*
X122509523Y-74695238D01*
X122557142Y-74885714D01*
X122557142Y-75219047D01*
X122509523Y-75409523D01*
X122414285Y-75504761D01*
X122319047Y-75552380D01*
X122128571Y-75552380D01*
X123509523Y-75552380D02*
X122938095Y-75552380D01*
X123223809Y-75552380D02*
X123223809Y-74552380D01*
X123128571Y-74695238D01*
X123033333Y-74790476D01*
X122938095Y-74838095D01*
G04 #@! TO.C,R1*
X106683333Y-99722380D02*
X106350000Y-99246190D01*
X106111904Y-99722380D02*
X106111904Y-98722380D01*
X106492857Y-98722380D01*
X106588095Y-98770000D01*
X106635714Y-98817619D01*
X106683333Y-98912857D01*
X106683333Y-99055714D01*
X106635714Y-99150952D01*
X106588095Y-99198571D01*
X106492857Y-99246190D01*
X106111904Y-99246190D01*
X107635714Y-99722380D02*
X107064285Y-99722380D01*
X107350000Y-99722380D02*
X107350000Y-98722380D01*
X107254761Y-98865238D01*
X107159523Y-98960476D01*
X107064285Y-99008095D01*
G04 #@! TO.C,R2*
X106683333Y-97272380D02*
X106350000Y-96796190D01*
X106111904Y-97272380D02*
X106111904Y-96272380D01*
X106492857Y-96272380D01*
X106588095Y-96320000D01*
X106635714Y-96367619D01*
X106683333Y-96462857D01*
X106683333Y-96605714D01*
X106635714Y-96700952D01*
X106588095Y-96748571D01*
X106492857Y-96796190D01*
X106111904Y-96796190D01*
X107064285Y-96367619D02*
X107111904Y-96320000D01*
X107207142Y-96272380D01*
X107445238Y-96272380D01*
X107540476Y-96320000D01*
X107588095Y-96367619D01*
X107635714Y-96462857D01*
X107635714Y-96558095D01*
X107588095Y-96700952D01*
X107016666Y-97272380D01*
X107635714Y-97272380D01*
G04 #@! TO.C,R3*
X113183333Y-93632380D02*
X112850000Y-93156190D01*
X112611904Y-93632380D02*
X112611904Y-92632380D01*
X112992857Y-92632380D01*
X113088095Y-92680000D01*
X113135714Y-92727619D01*
X113183333Y-92822857D01*
X113183333Y-92965714D01*
X113135714Y-93060952D01*
X113088095Y-93108571D01*
X112992857Y-93156190D01*
X112611904Y-93156190D01*
X113516666Y-92632380D02*
X114135714Y-92632380D01*
X113802380Y-93013333D01*
X113945238Y-93013333D01*
X114040476Y-93060952D01*
X114088095Y-93108571D01*
X114135714Y-93203809D01*
X114135714Y-93441904D01*
X114088095Y-93537142D01*
X114040476Y-93584761D01*
X113945238Y-93632380D01*
X113659523Y-93632380D01*
X113564285Y-93584761D01*
X113516666Y-93537142D01*
G04 #@! TO.C,R4*
X113183333Y-96132380D02*
X112850000Y-95656190D01*
X112611904Y-96132380D02*
X112611904Y-95132380D01*
X112992857Y-95132380D01*
X113088095Y-95180000D01*
X113135714Y-95227619D01*
X113183333Y-95322857D01*
X113183333Y-95465714D01*
X113135714Y-95560952D01*
X113088095Y-95608571D01*
X112992857Y-95656190D01*
X112611904Y-95656190D01*
X114040476Y-95465714D02*
X114040476Y-96132380D01*
X113802380Y-95084761D02*
X113564285Y-95799047D01*
X114183333Y-95799047D01*
G04 #@! TO.C,R6*
X118772380Y-74654166D02*
X118296190Y-74987500D01*
X118772380Y-75225595D02*
X117772380Y-75225595D01*
X117772380Y-74844642D01*
X117820000Y-74749404D01*
X117867619Y-74701785D01*
X117962857Y-74654166D01*
X118105714Y-74654166D01*
X118200952Y-74701785D01*
X118248571Y-74749404D01*
X118296190Y-74844642D01*
X118296190Y-75225595D01*
X117772380Y-73797023D02*
X117772380Y-73987500D01*
X117820000Y-74082738D01*
X117867619Y-74130357D01*
X118010476Y-74225595D01*
X118200952Y-74273214D01*
X118581904Y-74273214D01*
X118677142Y-74225595D01*
X118724761Y-74177976D01*
X118772380Y-74082738D01*
X118772380Y-73892261D01*
X118724761Y-73797023D01*
X118677142Y-73749404D01*
X118581904Y-73701785D01*
X118343809Y-73701785D01*
X118248571Y-73749404D01*
X118200952Y-73797023D01*
X118153333Y-73892261D01*
X118153333Y-74082738D01*
X118200952Y-74177976D01*
X118248571Y-74225595D01*
X118343809Y-74273214D01*
G04 #@! TO.C,R7*
X121632380Y-77916666D02*
X121156190Y-78250000D01*
X121632380Y-78488095D02*
X120632380Y-78488095D01*
X120632380Y-78107142D01*
X120680000Y-78011904D01*
X120727619Y-77964285D01*
X120822857Y-77916666D01*
X120965714Y-77916666D01*
X121060952Y-77964285D01*
X121108571Y-78011904D01*
X121156190Y-78107142D01*
X121156190Y-78488095D01*
X120632380Y-77583333D02*
X120632380Y-76916666D01*
X121632380Y-77345238D01*
G04 #@! TO.C,R8*
X116045833Y-92882380D02*
X115712500Y-92406190D01*
X115474404Y-92882380D02*
X115474404Y-91882380D01*
X115855357Y-91882380D01*
X115950595Y-91930000D01*
X115998214Y-91977619D01*
X116045833Y-92072857D01*
X116045833Y-92215714D01*
X115998214Y-92310952D01*
X115950595Y-92358571D01*
X115855357Y-92406190D01*
X115474404Y-92406190D01*
X116617261Y-92310952D02*
X116522023Y-92263333D01*
X116474404Y-92215714D01*
X116426785Y-92120476D01*
X116426785Y-92072857D01*
X116474404Y-91977619D01*
X116522023Y-91930000D01*
X116617261Y-91882380D01*
X116807738Y-91882380D01*
X116902976Y-91930000D01*
X116950595Y-91977619D01*
X116998214Y-92072857D01*
X116998214Y-92120476D01*
X116950595Y-92215714D01*
X116902976Y-92263333D01*
X116807738Y-92310952D01*
X116617261Y-92310952D01*
X116522023Y-92358571D01*
X116474404Y-92406190D01*
X116426785Y-92501428D01*
X116426785Y-92691904D01*
X116474404Y-92787142D01*
X116522023Y-92834761D01*
X116617261Y-92882380D01*
X116807738Y-92882380D01*
X116902976Y-92834761D01*
X116950595Y-92787142D01*
X116998214Y-92691904D01*
X116998214Y-92501428D01*
X116950595Y-92406190D01*
X116902976Y-92358571D01*
X116807738Y-92310952D01*
G04 #@! TO.C,R9*
X116045833Y-91132380D02*
X115712500Y-90656190D01*
X115474404Y-91132380D02*
X115474404Y-90132380D01*
X115855357Y-90132380D01*
X115950595Y-90180000D01*
X115998214Y-90227619D01*
X116045833Y-90322857D01*
X116045833Y-90465714D01*
X115998214Y-90560952D01*
X115950595Y-90608571D01*
X115855357Y-90656190D01*
X115474404Y-90656190D01*
X116522023Y-91132380D02*
X116712500Y-91132380D01*
X116807738Y-91084761D01*
X116855357Y-91037142D01*
X116950595Y-90894285D01*
X116998214Y-90703809D01*
X116998214Y-90322857D01*
X116950595Y-90227619D01*
X116902976Y-90180000D01*
X116807738Y-90132380D01*
X116617261Y-90132380D01*
X116522023Y-90180000D01*
X116474404Y-90227619D01*
X116426785Y-90322857D01*
X116426785Y-90560952D01*
X116474404Y-90656190D01*
X116522023Y-90703809D01*
X116617261Y-90751428D01*
X116807738Y-90751428D01*
X116902976Y-90703809D01*
X116950595Y-90656190D01*
X116998214Y-90560952D01*
G04 #@! TO.C,R10*
X94569642Y-74332380D02*
X94236309Y-73856190D01*
X93998214Y-74332380D02*
X93998214Y-73332380D01*
X94379166Y-73332380D01*
X94474404Y-73380000D01*
X94522023Y-73427619D01*
X94569642Y-73522857D01*
X94569642Y-73665714D01*
X94522023Y-73760952D01*
X94474404Y-73808571D01*
X94379166Y-73856190D01*
X93998214Y-73856190D01*
X95522023Y-74332380D02*
X94950595Y-74332380D01*
X95236309Y-74332380D02*
X95236309Y-73332380D01*
X95141071Y-73475238D01*
X95045833Y-73570476D01*
X94950595Y-73618095D01*
X96141071Y-73332380D02*
X96236309Y-73332380D01*
X96331547Y-73380000D01*
X96379166Y-73427619D01*
X96426785Y-73522857D01*
X96474404Y-73713333D01*
X96474404Y-73951428D01*
X96426785Y-74141904D01*
X96379166Y-74237142D01*
X96331547Y-74284761D01*
X96236309Y-74332380D01*
X96141071Y-74332380D01*
X96045833Y-74284761D01*
X95998214Y-74237142D01*
X95950595Y-74141904D01*
X95902976Y-73951428D01*
X95902976Y-73713333D01*
X95950595Y-73522857D01*
X95998214Y-73427619D01*
X96045833Y-73380000D01*
X96141071Y-73332380D01*
G04 #@! TO.C,R11*
X98257142Y-74332380D02*
X97923809Y-73856190D01*
X97685714Y-74332380D02*
X97685714Y-73332380D01*
X98066666Y-73332380D01*
X98161904Y-73380000D01*
X98209523Y-73427619D01*
X98257142Y-73522857D01*
X98257142Y-73665714D01*
X98209523Y-73760952D01*
X98161904Y-73808571D01*
X98066666Y-73856190D01*
X97685714Y-73856190D01*
X99209523Y-74332380D02*
X98638095Y-74332380D01*
X98923809Y-74332380D02*
X98923809Y-73332380D01*
X98828571Y-73475238D01*
X98733333Y-73570476D01*
X98638095Y-73618095D01*
X100161904Y-74332380D02*
X99590476Y-74332380D01*
X99876190Y-74332380D02*
X99876190Y-73332380D01*
X99780952Y-73475238D01*
X99685714Y-73570476D01*
X99590476Y-73618095D01*
G04 #@! TO.C,R12*
X113857142Y-80632380D02*
X113523809Y-80156190D01*
X113285714Y-80632380D02*
X113285714Y-79632380D01*
X113666666Y-79632380D01*
X113761904Y-79680000D01*
X113809523Y-79727619D01*
X113857142Y-79822857D01*
X113857142Y-79965714D01*
X113809523Y-80060952D01*
X113761904Y-80108571D01*
X113666666Y-80156190D01*
X113285714Y-80156190D01*
X114809523Y-80632380D02*
X114238095Y-80632380D01*
X114523809Y-80632380D02*
X114523809Y-79632380D01*
X114428571Y-79775238D01*
X114333333Y-79870476D01*
X114238095Y-79918095D01*
X115190476Y-79727619D02*
X115238095Y-79680000D01*
X115333333Y-79632380D01*
X115571428Y-79632380D01*
X115666666Y-79680000D01*
X115714285Y-79727619D01*
X115761904Y-79822857D01*
X115761904Y-79918095D01*
X115714285Y-80060952D01*
X115142857Y-80632380D01*
X115761904Y-80632380D01*
G04 #@! TO.C,R13*
X110972380Y-75142857D02*
X110496190Y-75476190D01*
X110972380Y-75714285D02*
X109972380Y-75714285D01*
X109972380Y-75333333D01*
X110020000Y-75238095D01*
X110067619Y-75190476D01*
X110162857Y-75142857D01*
X110305714Y-75142857D01*
X110400952Y-75190476D01*
X110448571Y-75238095D01*
X110496190Y-75333333D01*
X110496190Y-75714285D01*
X110972380Y-74190476D02*
X110972380Y-74761904D01*
X110972380Y-74476190D02*
X109972380Y-74476190D01*
X110115238Y-74571428D01*
X110210476Y-74666666D01*
X110258095Y-74761904D01*
X109972380Y-73857142D02*
X109972380Y-73238095D01*
X110353333Y-73571428D01*
X110353333Y-73428571D01*
X110400952Y-73333333D01*
X110448571Y-73285714D01*
X110543809Y-73238095D01*
X110781904Y-73238095D01*
X110877142Y-73285714D01*
X110924761Y-73333333D01*
X110972380Y-73428571D01*
X110972380Y-73714285D01*
X110924761Y-73809523D01*
X110877142Y-73857142D01*
G04 #@! TO.C,R14*
X110972380Y-78530357D02*
X110496190Y-78863690D01*
X110972380Y-79101785D02*
X109972380Y-79101785D01*
X109972380Y-78720833D01*
X110020000Y-78625595D01*
X110067619Y-78577976D01*
X110162857Y-78530357D01*
X110305714Y-78530357D01*
X110400952Y-78577976D01*
X110448571Y-78625595D01*
X110496190Y-78720833D01*
X110496190Y-79101785D01*
X110972380Y-77577976D02*
X110972380Y-78149404D01*
X110972380Y-77863690D02*
X109972380Y-77863690D01*
X110115238Y-77958928D01*
X110210476Y-78054166D01*
X110258095Y-78149404D01*
X110305714Y-76720833D02*
X110972380Y-76720833D01*
X109924761Y-76958928D02*
X110639047Y-77197023D01*
X110639047Y-76577976D01*
G04 #@! TO.C,R15*
X113869642Y-76122380D02*
X113536309Y-75646190D01*
X113298214Y-76122380D02*
X113298214Y-75122380D01*
X113679166Y-75122380D01*
X113774404Y-75170000D01*
X113822023Y-75217619D01*
X113869642Y-75312857D01*
X113869642Y-75455714D01*
X113822023Y-75550952D01*
X113774404Y-75598571D01*
X113679166Y-75646190D01*
X113298214Y-75646190D01*
X114822023Y-76122380D02*
X114250595Y-76122380D01*
X114536309Y-76122380D02*
X114536309Y-75122380D01*
X114441071Y-75265238D01*
X114345833Y-75360476D01*
X114250595Y-75408095D01*
X115726785Y-75122380D02*
X115250595Y-75122380D01*
X115202976Y-75598571D01*
X115250595Y-75550952D01*
X115345833Y-75503333D01*
X115583928Y-75503333D01*
X115679166Y-75550952D01*
X115726785Y-75598571D01*
X115774404Y-75693809D01*
X115774404Y-75931904D01*
X115726785Y-76027142D01*
X115679166Y-76074761D01*
X115583928Y-76122380D01*
X115345833Y-76122380D01*
X115250595Y-76074761D01*
X115202976Y-76027142D01*
G04 #@! TO.C,R16*
X113869642Y-74372380D02*
X113536309Y-73896190D01*
X113298214Y-74372380D02*
X113298214Y-73372380D01*
X113679166Y-73372380D01*
X113774404Y-73420000D01*
X113822023Y-73467619D01*
X113869642Y-73562857D01*
X113869642Y-73705714D01*
X113822023Y-73800952D01*
X113774404Y-73848571D01*
X113679166Y-73896190D01*
X113298214Y-73896190D01*
X114822023Y-74372380D02*
X114250595Y-74372380D01*
X114536309Y-74372380D02*
X114536309Y-73372380D01*
X114441071Y-73515238D01*
X114345833Y-73610476D01*
X114250595Y-73658095D01*
X115679166Y-73372380D02*
X115488690Y-73372380D01*
X115393452Y-73420000D01*
X115345833Y-73467619D01*
X115250595Y-73610476D01*
X115202976Y-73800952D01*
X115202976Y-74181904D01*
X115250595Y-74277142D01*
X115298214Y-74324761D01*
X115393452Y-74372380D01*
X115583928Y-74372380D01*
X115679166Y-74324761D01*
X115726785Y-74277142D01*
X115774404Y-74181904D01*
X115774404Y-73943809D01*
X115726785Y-73848571D01*
X115679166Y-73800952D01*
X115583928Y-73753333D01*
X115393452Y-73753333D01*
X115298214Y-73800952D01*
X115250595Y-73848571D01*
X115202976Y-73943809D01*
G04 #@! TO.C,R17*
X102569642Y-81632380D02*
X102236309Y-81156190D01*
X101998214Y-81632380D02*
X101998214Y-80632380D01*
X102379166Y-80632380D01*
X102474404Y-80680000D01*
X102522023Y-80727619D01*
X102569642Y-80822857D01*
X102569642Y-80965714D01*
X102522023Y-81060952D01*
X102474404Y-81108571D01*
X102379166Y-81156190D01*
X101998214Y-81156190D01*
X103522023Y-81632380D02*
X102950595Y-81632380D01*
X103236309Y-81632380D02*
X103236309Y-80632380D01*
X103141071Y-80775238D01*
X103045833Y-80870476D01*
X102950595Y-80918095D01*
X103855357Y-80632380D02*
X104522023Y-80632380D01*
X104093452Y-81632380D01*
G04 #@! TO.C,R18*
X102569642Y-79882380D02*
X102236309Y-79406190D01*
X101998214Y-79882380D02*
X101998214Y-78882380D01*
X102379166Y-78882380D01*
X102474404Y-78930000D01*
X102522023Y-78977619D01*
X102569642Y-79072857D01*
X102569642Y-79215714D01*
X102522023Y-79310952D01*
X102474404Y-79358571D01*
X102379166Y-79406190D01*
X101998214Y-79406190D01*
X103522023Y-79882380D02*
X102950595Y-79882380D01*
X103236309Y-79882380D02*
X103236309Y-78882380D01*
X103141071Y-79025238D01*
X103045833Y-79120476D01*
X102950595Y-79168095D01*
X104093452Y-79310952D02*
X103998214Y-79263333D01*
X103950595Y-79215714D01*
X103902976Y-79120476D01*
X103902976Y-79072857D01*
X103950595Y-78977619D01*
X103998214Y-78930000D01*
X104093452Y-78882380D01*
X104283928Y-78882380D01*
X104379166Y-78930000D01*
X104426785Y-78977619D01*
X104474404Y-79072857D01*
X104474404Y-79120476D01*
X104426785Y-79215714D01*
X104379166Y-79263333D01*
X104283928Y-79310952D01*
X104093452Y-79310952D01*
X103998214Y-79358571D01*
X103950595Y-79406190D01*
X103902976Y-79501428D01*
X103902976Y-79691904D01*
X103950595Y-79787142D01*
X103998214Y-79834761D01*
X104093452Y-79882380D01*
X104283928Y-79882380D01*
X104379166Y-79834761D01*
X104426785Y-79787142D01*
X104474404Y-79691904D01*
X104474404Y-79501428D01*
X104426785Y-79406190D01*
X104379166Y-79358571D01*
X104283928Y-79310952D01*
G04 #@! TO.C,R23*
X170482380Y-75155357D02*
X170006190Y-75488690D01*
X170482380Y-75726785D02*
X169482380Y-75726785D01*
X169482380Y-75345833D01*
X169530000Y-75250595D01*
X169577619Y-75202976D01*
X169672857Y-75155357D01*
X169815714Y-75155357D01*
X169910952Y-75202976D01*
X169958571Y-75250595D01*
X170006190Y-75345833D01*
X170006190Y-75726785D01*
X169577619Y-74774404D02*
X169530000Y-74726785D01*
X169482380Y-74631547D01*
X169482380Y-74393452D01*
X169530000Y-74298214D01*
X169577619Y-74250595D01*
X169672857Y-74202976D01*
X169768095Y-74202976D01*
X169910952Y-74250595D01*
X170482380Y-74822023D01*
X170482380Y-74202976D01*
X169482380Y-73869642D02*
X169482380Y-73250595D01*
X169863333Y-73583928D01*
X169863333Y-73441071D01*
X169910952Y-73345833D01*
X169958571Y-73298214D01*
X170053809Y-73250595D01*
X170291904Y-73250595D01*
X170387142Y-73298214D01*
X170434761Y-73345833D01*
X170482380Y-73441071D01*
X170482380Y-73726785D01*
X170434761Y-73822023D01*
X170387142Y-73869642D01*
G04 #@! TO.C,R24*
X169322380Y-75142857D02*
X168846190Y-75476190D01*
X169322380Y-75714285D02*
X168322380Y-75714285D01*
X168322380Y-75333333D01*
X168370000Y-75238095D01*
X168417619Y-75190476D01*
X168512857Y-75142857D01*
X168655714Y-75142857D01*
X168750952Y-75190476D01*
X168798571Y-75238095D01*
X168846190Y-75333333D01*
X168846190Y-75714285D01*
X168417619Y-74761904D02*
X168370000Y-74714285D01*
X168322380Y-74619047D01*
X168322380Y-74380952D01*
X168370000Y-74285714D01*
X168417619Y-74238095D01*
X168512857Y-74190476D01*
X168608095Y-74190476D01*
X168750952Y-74238095D01*
X169322380Y-74809523D01*
X169322380Y-74190476D01*
X168655714Y-73333333D02*
X169322380Y-73333333D01*
X168274761Y-73571428D02*
X168989047Y-73809523D01*
X168989047Y-73190476D01*
G04 #@! TO.C,R25*
X169422380Y-78342857D02*
X168946190Y-78676190D01*
X169422380Y-78914285D02*
X168422380Y-78914285D01*
X168422380Y-78533333D01*
X168470000Y-78438095D01*
X168517619Y-78390476D01*
X168612857Y-78342857D01*
X168755714Y-78342857D01*
X168850952Y-78390476D01*
X168898571Y-78438095D01*
X168946190Y-78533333D01*
X168946190Y-78914285D01*
X168517619Y-77961904D02*
X168470000Y-77914285D01*
X168422380Y-77819047D01*
X168422380Y-77580952D01*
X168470000Y-77485714D01*
X168517619Y-77438095D01*
X168612857Y-77390476D01*
X168708095Y-77390476D01*
X168850952Y-77438095D01*
X169422380Y-78009523D01*
X169422380Y-77390476D01*
X168422380Y-76485714D02*
X168422380Y-76961904D01*
X168898571Y-77009523D01*
X168850952Y-76961904D01*
X168803333Y-76866666D01*
X168803333Y-76628571D01*
X168850952Y-76533333D01*
X168898571Y-76485714D01*
X168993809Y-76438095D01*
X169231904Y-76438095D01*
X169327142Y-76485714D01*
X169374761Y-76533333D01*
X169422380Y-76628571D01*
X169422380Y-76866666D01*
X169374761Y-76961904D01*
X169327142Y-77009523D01*
G04 #@! TO.C,R28*
X154557142Y-74382380D02*
X154223809Y-73906190D01*
X153985714Y-74382380D02*
X153985714Y-73382380D01*
X154366666Y-73382380D01*
X154461904Y-73430000D01*
X154509523Y-73477619D01*
X154557142Y-73572857D01*
X154557142Y-73715714D01*
X154509523Y-73810952D01*
X154461904Y-73858571D01*
X154366666Y-73906190D01*
X153985714Y-73906190D01*
X154938095Y-73477619D02*
X154985714Y-73430000D01*
X155080952Y-73382380D01*
X155319047Y-73382380D01*
X155414285Y-73430000D01*
X155461904Y-73477619D01*
X155509523Y-73572857D01*
X155509523Y-73668095D01*
X155461904Y-73810952D01*
X154890476Y-74382380D01*
X155509523Y-74382380D01*
X156080952Y-73810952D02*
X155985714Y-73763333D01*
X155938095Y-73715714D01*
X155890476Y-73620476D01*
X155890476Y-73572857D01*
X155938095Y-73477619D01*
X155985714Y-73430000D01*
X156080952Y-73382380D01*
X156271428Y-73382380D01*
X156366666Y-73430000D01*
X156414285Y-73477619D01*
X156461904Y-73572857D01*
X156461904Y-73620476D01*
X156414285Y-73715714D01*
X156366666Y-73763333D01*
X156271428Y-73810952D01*
X156080952Y-73810952D01*
X155985714Y-73858571D01*
X155938095Y-73906190D01*
X155890476Y-74001428D01*
X155890476Y-74191904D01*
X155938095Y-74287142D01*
X155985714Y-74334761D01*
X156080952Y-74382380D01*
X156271428Y-74382380D01*
X156366666Y-74334761D01*
X156414285Y-74287142D01*
X156461904Y-74191904D01*
X156461904Y-74001428D01*
X156414285Y-73906190D01*
X156366666Y-73858571D01*
X156271428Y-73810952D01*
G04 #@! TO.C,R29*
X158357142Y-74382380D02*
X158023809Y-73906190D01*
X157785714Y-74382380D02*
X157785714Y-73382380D01*
X158166666Y-73382380D01*
X158261904Y-73430000D01*
X158309523Y-73477619D01*
X158357142Y-73572857D01*
X158357142Y-73715714D01*
X158309523Y-73810952D01*
X158261904Y-73858571D01*
X158166666Y-73906190D01*
X157785714Y-73906190D01*
X158738095Y-73477619D02*
X158785714Y-73430000D01*
X158880952Y-73382380D01*
X159119047Y-73382380D01*
X159214285Y-73430000D01*
X159261904Y-73477619D01*
X159309523Y-73572857D01*
X159309523Y-73668095D01*
X159261904Y-73810952D01*
X158690476Y-74382380D01*
X159309523Y-74382380D01*
X159785714Y-74382380D02*
X159976190Y-74382380D01*
X160071428Y-74334761D01*
X160119047Y-74287142D01*
X160214285Y-74144285D01*
X160261904Y-73953809D01*
X160261904Y-73572857D01*
X160214285Y-73477619D01*
X160166666Y-73430000D01*
X160071428Y-73382380D01*
X159880952Y-73382380D01*
X159785714Y-73430000D01*
X159738095Y-73477619D01*
X159690476Y-73572857D01*
X159690476Y-73810952D01*
X159738095Y-73906190D01*
X159785714Y-73953809D01*
X159880952Y-74001428D01*
X160071428Y-74001428D01*
X160166666Y-73953809D01*
X160214285Y-73906190D01*
X160261904Y-73810952D01*
G04 #@! TO.C,R33*
X164644642Y-76152380D02*
X164311309Y-75676190D01*
X164073214Y-76152380D02*
X164073214Y-75152380D01*
X164454166Y-75152380D01*
X164549404Y-75200000D01*
X164597023Y-75247619D01*
X164644642Y-75342857D01*
X164644642Y-75485714D01*
X164597023Y-75580952D01*
X164549404Y-75628571D01*
X164454166Y-75676190D01*
X164073214Y-75676190D01*
X164977976Y-75152380D02*
X165597023Y-75152380D01*
X165263690Y-75533333D01*
X165406547Y-75533333D01*
X165501785Y-75580952D01*
X165549404Y-75628571D01*
X165597023Y-75723809D01*
X165597023Y-75961904D01*
X165549404Y-76057142D01*
X165501785Y-76104761D01*
X165406547Y-76152380D01*
X165120833Y-76152380D01*
X165025595Y-76104761D01*
X164977976Y-76057142D01*
X165930357Y-75152380D02*
X166549404Y-75152380D01*
X166216071Y-75533333D01*
X166358928Y-75533333D01*
X166454166Y-75580952D01*
X166501785Y-75628571D01*
X166549404Y-75723809D01*
X166549404Y-75961904D01*
X166501785Y-76057142D01*
X166454166Y-76104761D01*
X166358928Y-76152380D01*
X166073214Y-76152380D01*
X165977976Y-76104761D01*
X165930357Y-76057142D01*
G04 #@! TO.C,R34*
X164644642Y-74432380D02*
X164311309Y-73956190D01*
X164073214Y-74432380D02*
X164073214Y-73432380D01*
X164454166Y-73432380D01*
X164549404Y-73480000D01*
X164597023Y-73527619D01*
X164644642Y-73622857D01*
X164644642Y-73765714D01*
X164597023Y-73860952D01*
X164549404Y-73908571D01*
X164454166Y-73956190D01*
X164073214Y-73956190D01*
X164977976Y-73432380D02*
X165597023Y-73432380D01*
X165263690Y-73813333D01*
X165406547Y-73813333D01*
X165501785Y-73860952D01*
X165549404Y-73908571D01*
X165597023Y-74003809D01*
X165597023Y-74241904D01*
X165549404Y-74337142D01*
X165501785Y-74384761D01*
X165406547Y-74432380D01*
X165120833Y-74432380D01*
X165025595Y-74384761D01*
X164977976Y-74337142D01*
X166454166Y-73765714D02*
X166454166Y-74432380D01*
X166216071Y-73384761D02*
X165977976Y-74099047D01*
X166597023Y-74099047D01*
G04 #@! TO.C,R37*
X132457142Y-97272380D02*
X132123809Y-96796190D01*
X131885714Y-97272380D02*
X131885714Y-96272380D01*
X132266666Y-96272380D01*
X132361904Y-96320000D01*
X132409523Y-96367619D01*
X132457142Y-96462857D01*
X132457142Y-96605714D01*
X132409523Y-96700952D01*
X132361904Y-96748571D01*
X132266666Y-96796190D01*
X131885714Y-96796190D01*
X132790476Y-96272380D02*
X133409523Y-96272380D01*
X133076190Y-96653333D01*
X133219047Y-96653333D01*
X133314285Y-96700952D01*
X133361904Y-96748571D01*
X133409523Y-96843809D01*
X133409523Y-97081904D01*
X133361904Y-97177142D01*
X133314285Y-97224761D01*
X133219047Y-97272380D01*
X132933333Y-97272380D01*
X132838095Y-97224761D01*
X132790476Y-97177142D01*
X133742857Y-96272380D02*
X134409523Y-96272380D01*
X133980952Y-97272380D01*
G04 #@! TO.C,R38*
X132457142Y-99772380D02*
X132123809Y-99296190D01*
X131885714Y-99772380D02*
X131885714Y-98772380D01*
X132266666Y-98772380D01*
X132361904Y-98820000D01*
X132409523Y-98867619D01*
X132457142Y-98962857D01*
X132457142Y-99105714D01*
X132409523Y-99200952D01*
X132361904Y-99248571D01*
X132266666Y-99296190D01*
X131885714Y-99296190D01*
X132790476Y-98772380D02*
X133409523Y-98772380D01*
X133076190Y-99153333D01*
X133219047Y-99153333D01*
X133314285Y-99200952D01*
X133361904Y-99248571D01*
X133409523Y-99343809D01*
X133409523Y-99581904D01*
X133361904Y-99677142D01*
X133314285Y-99724761D01*
X133219047Y-99772380D01*
X132933333Y-99772380D01*
X132838095Y-99724761D01*
X132790476Y-99677142D01*
X133980952Y-99200952D02*
X133885714Y-99153333D01*
X133838095Y-99105714D01*
X133790476Y-99010476D01*
X133790476Y-98962857D01*
X133838095Y-98867619D01*
X133885714Y-98820000D01*
X133980952Y-98772380D01*
X134171428Y-98772380D01*
X134266666Y-98820000D01*
X134314285Y-98867619D01*
X134361904Y-98962857D01*
X134361904Y-99010476D01*
X134314285Y-99105714D01*
X134266666Y-99153333D01*
X134171428Y-99200952D01*
X133980952Y-99200952D01*
X133885714Y-99248571D01*
X133838095Y-99296190D01*
X133790476Y-99391428D01*
X133790476Y-99581904D01*
X133838095Y-99677142D01*
X133885714Y-99724761D01*
X133980952Y-99772380D01*
X134171428Y-99772380D01*
X134266666Y-99724761D01*
X134314285Y-99677142D01*
X134361904Y-99581904D01*
X134361904Y-99391428D01*
X134314285Y-99296190D01*
X134266666Y-99248571D01*
X134171428Y-99200952D01*
G04 #@! TO.C,R39*
X138957142Y-96082380D02*
X138623809Y-95606190D01*
X138385714Y-96082380D02*
X138385714Y-95082380D01*
X138766666Y-95082380D01*
X138861904Y-95130000D01*
X138909523Y-95177619D01*
X138957142Y-95272857D01*
X138957142Y-95415714D01*
X138909523Y-95510952D01*
X138861904Y-95558571D01*
X138766666Y-95606190D01*
X138385714Y-95606190D01*
X139290476Y-95082380D02*
X139909523Y-95082380D01*
X139576190Y-95463333D01*
X139719047Y-95463333D01*
X139814285Y-95510952D01*
X139861904Y-95558571D01*
X139909523Y-95653809D01*
X139909523Y-95891904D01*
X139861904Y-95987142D01*
X139814285Y-96034761D01*
X139719047Y-96082380D01*
X139433333Y-96082380D01*
X139338095Y-96034761D01*
X139290476Y-95987142D01*
X140385714Y-96082380D02*
X140576190Y-96082380D01*
X140671428Y-96034761D01*
X140719047Y-95987142D01*
X140814285Y-95844285D01*
X140861904Y-95653809D01*
X140861904Y-95272857D01*
X140814285Y-95177619D01*
X140766666Y-95130000D01*
X140671428Y-95082380D01*
X140480952Y-95082380D01*
X140385714Y-95130000D01*
X140338095Y-95177619D01*
X140290476Y-95272857D01*
X140290476Y-95510952D01*
X140338095Y-95606190D01*
X140385714Y-95653809D01*
X140480952Y-95701428D01*
X140671428Y-95701428D01*
X140766666Y-95653809D01*
X140814285Y-95606190D01*
X140861904Y-95510952D01*
G04 #@! TO.C,R40*
X138957142Y-93632380D02*
X138623809Y-93156190D01*
X138385714Y-93632380D02*
X138385714Y-92632380D01*
X138766666Y-92632380D01*
X138861904Y-92680000D01*
X138909523Y-92727619D01*
X138957142Y-92822857D01*
X138957142Y-92965714D01*
X138909523Y-93060952D01*
X138861904Y-93108571D01*
X138766666Y-93156190D01*
X138385714Y-93156190D01*
X139814285Y-92965714D02*
X139814285Y-93632380D01*
X139576190Y-92584761D02*
X139338095Y-93299047D01*
X139957142Y-93299047D01*
X140528571Y-92632380D02*
X140623809Y-92632380D01*
X140719047Y-92680000D01*
X140766666Y-92727619D01*
X140814285Y-92822857D01*
X140861904Y-93013333D01*
X140861904Y-93251428D01*
X140814285Y-93441904D01*
X140766666Y-93537142D01*
X140719047Y-93584761D01*
X140623809Y-93632380D01*
X140528571Y-93632380D01*
X140433333Y-93584761D01*
X140385714Y-93537142D01*
X140338095Y-93441904D01*
X140290476Y-93251428D01*
X140290476Y-93013333D01*
X140338095Y-92822857D01*
X140385714Y-92727619D01*
X140433333Y-92680000D01*
X140528571Y-92632380D01*
G04 #@! TO.C,R41*
X144482380Y-75130357D02*
X144006190Y-75463690D01*
X144482380Y-75701785D02*
X143482380Y-75701785D01*
X143482380Y-75320833D01*
X143530000Y-75225595D01*
X143577619Y-75177976D01*
X143672857Y-75130357D01*
X143815714Y-75130357D01*
X143910952Y-75177976D01*
X143958571Y-75225595D01*
X144006190Y-75320833D01*
X144006190Y-75701785D01*
X143815714Y-74273214D02*
X144482380Y-74273214D01*
X143434761Y-74511309D02*
X144149047Y-74749404D01*
X144149047Y-74130357D01*
X144482380Y-73225595D02*
X144482380Y-73797023D01*
X144482380Y-73511309D02*
X143482380Y-73511309D01*
X143625238Y-73606547D01*
X143720476Y-73701785D01*
X143768095Y-73797023D01*
G04 #@! TO.C,R42*
X143422380Y-75155357D02*
X142946190Y-75488690D01*
X143422380Y-75726785D02*
X142422380Y-75726785D01*
X142422380Y-75345833D01*
X142470000Y-75250595D01*
X142517619Y-75202976D01*
X142612857Y-75155357D01*
X142755714Y-75155357D01*
X142850952Y-75202976D01*
X142898571Y-75250595D01*
X142946190Y-75345833D01*
X142946190Y-75726785D01*
X142755714Y-74298214D02*
X143422380Y-74298214D01*
X142374761Y-74536309D02*
X143089047Y-74774404D01*
X143089047Y-74155357D01*
X142517619Y-73822023D02*
X142470000Y-73774404D01*
X142422380Y-73679166D01*
X142422380Y-73441071D01*
X142470000Y-73345833D01*
X142517619Y-73298214D01*
X142612857Y-73250595D01*
X142708095Y-73250595D01*
X142850952Y-73298214D01*
X143422380Y-73869642D01*
X143422380Y-73250595D01*
G04 #@! TO.C,R43*
X143422380Y-78355357D02*
X142946190Y-78688690D01*
X143422380Y-78926785D02*
X142422380Y-78926785D01*
X142422380Y-78545833D01*
X142470000Y-78450595D01*
X142517619Y-78402976D01*
X142612857Y-78355357D01*
X142755714Y-78355357D01*
X142850952Y-78402976D01*
X142898571Y-78450595D01*
X142946190Y-78545833D01*
X142946190Y-78926785D01*
X142755714Y-77498214D02*
X143422380Y-77498214D01*
X142374761Y-77736309D02*
X143089047Y-77974404D01*
X143089047Y-77355357D01*
X142422380Y-77069642D02*
X142422380Y-76450595D01*
X142803333Y-76783928D01*
X142803333Y-76641071D01*
X142850952Y-76545833D01*
X142898571Y-76498214D01*
X142993809Y-76450595D01*
X143231904Y-76450595D01*
X143327142Y-76498214D01*
X143374761Y-76545833D01*
X143422380Y-76641071D01*
X143422380Y-76926785D01*
X143374761Y-77022023D01*
X143327142Y-77069642D01*
G04 #@! TO.C,R44*
X141857142Y-92882380D02*
X141523809Y-92406190D01*
X141285714Y-92882380D02*
X141285714Y-91882380D01*
X141666666Y-91882380D01*
X141761904Y-91930000D01*
X141809523Y-91977619D01*
X141857142Y-92072857D01*
X141857142Y-92215714D01*
X141809523Y-92310952D01*
X141761904Y-92358571D01*
X141666666Y-92406190D01*
X141285714Y-92406190D01*
X142714285Y-92215714D02*
X142714285Y-92882380D01*
X142476190Y-91834761D02*
X142238095Y-92549047D01*
X142857142Y-92549047D01*
X143666666Y-92215714D02*
X143666666Y-92882380D01*
X143428571Y-91834761D02*
X143190476Y-92549047D01*
X143809523Y-92549047D01*
G04 #@! TO.C,R45*
X141857142Y-91132380D02*
X141523809Y-90656190D01*
X141285714Y-91132380D02*
X141285714Y-90132380D01*
X141666666Y-90132380D01*
X141761904Y-90180000D01*
X141809523Y-90227619D01*
X141857142Y-90322857D01*
X141857142Y-90465714D01*
X141809523Y-90560952D01*
X141761904Y-90608571D01*
X141666666Y-90656190D01*
X141285714Y-90656190D01*
X142714285Y-90465714D02*
X142714285Y-91132380D01*
X142476190Y-90084761D02*
X142238095Y-90799047D01*
X142857142Y-90799047D01*
X143714285Y-90132380D02*
X143238095Y-90132380D01*
X143190476Y-90608571D01*
X143238095Y-90560952D01*
X143333333Y-90513333D01*
X143571428Y-90513333D01*
X143666666Y-90560952D01*
X143714285Y-90608571D01*
X143761904Y-90703809D01*
X143761904Y-90941904D01*
X143714285Y-91037142D01*
X143666666Y-91084761D01*
X143571428Y-91132380D01*
X143333333Y-91132380D01*
X143238095Y-91084761D01*
X143190476Y-91037142D01*
G04 #@! TO.C,R46*
X128357142Y-74382380D02*
X128023809Y-73906190D01*
X127785714Y-74382380D02*
X127785714Y-73382380D01*
X128166666Y-73382380D01*
X128261904Y-73430000D01*
X128309523Y-73477619D01*
X128357142Y-73572857D01*
X128357142Y-73715714D01*
X128309523Y-73810952D01*
X128261904Y-73858571D01*
X128166666Y-73906190D01*
X127785714Y-73906190D01*
X129214285Y-73715714D02*
X129214285Y-74382380D01*
X128976190Y-73334761D02*
X128738095Y-74049047D01*
X129357142Y-74049047D01*
X130166666Y-73382380D02*
X129976190Y-73382380D01*
X129880952Y-73430000D01*
X129833333Y-73477619D01*
X129738095Y-73620476D01*
X129690476Y-73810952D01*
X129690476Y-74191904D01*
X129738095Y-74287142D01*
X129785714Y-74334761D01*
X129880952Y-74382380D01*
X130071428Y-74382380D01*
X130166666Y-74334761D01*
X130214285Y-74287142D01*
X130261904Y-74191904D01*
X130261904Y-73953809D01*
X130214285Y-73858571D01*
X130166666Y-73810952D01*
X130071428Y-73763333D01*
X129880952Y-73763333D01*
X129785714Y-73810952D01*
X129738095Y-73858571D01*
X129690476Y-73953809D01*
G04 #@! TO.C,R47*
X132157142Y-74382380D02*
X131823809Y-73906190D01*
X131585714Y-74382380D02*
X131585714Y-73382380D01*
X131966666Y-73382380D01*
X132061904Y-73430000D01*
X132109523Y-73477619D01*
X132157142Y-73572857D01*
X132157142Y-73715714D01*
X132109523Y-73810952D01*
X132061904Y-73858571D01*
X131966666Y-73906190D01*
X131585714Y-73906190D01*
X133014285Y-73715714D02*
X133014285Y-74382380D01*
X132776190Y-73334761D02*
X132538095Y-74049047D01*
X133157142Y-74049047D01*
X133442857Y-73382380D02*
X134109523Y-73382380D01*
X133680952Y-74382380D01*
G04 #@! TO.C,R48*
X138494642Y-80632380D02*
X138161309Y-80156190D01*
X137923214Y-80632380D02*
X137923214Y-79632380D01*
X138304166Y-79632380D01*
X138399404Y-79680000D01*
X138447023Y-79727619D01*
X138494642Y-79822857D01*
X138494642Y-79965714D01*
X138447023Y-80060952D01*
X138399404Y-80108571D01*
X138304166Y-80156190D01*
X137923214Y-80156190D01*
X139351785Y-79965714D02*
X139351785Y-80632380D01*
X139113690Y-79584761D02*
X138875595Y-80299047D01*
X139494642Y-80299047D01*
X140018452Y-80060952D02*
X139923214Y-80013333D01*
X139875595Y-79965714D01*
X139827976Y-79870476D01*
X139827976Y-79822857D01*
X139875595Y-79727619D01*
X139923214Y-79680000D01*
X140018452Y-79632380D01*
X140208928Y-79632380D01*
X140304166Y-79680000D01*
X140351785Y-79727619D01*
X140399404Y-79822857D01*
X140399404Y-79870476D01*
X140351785Y-79965714D01*
X140304166Y-80013333D01*
X140208928Y-80060952D01*
X140018452Y-80060952D01*
X139923214Y-80108571D01*
X139875595Y-80156190D01*
X139827976Y-80251428D01*
X139827976Y-80441904D01*
X139875595Y-80537142D01*
X139923214Y-80584761D01*
X140018452Y-80632380D01*
X140208928Y-80632380D01*
X140304166Y-80584761D01*
X140351785Y-80537142D01*
X140399404Y-80441904D01*
X140399404Y-80251428D01*
X140351785Y-80156190D01*
X140304166Y-80108571D01*
X140208928Y-80060952D01*
G04 #@! TO.C,R49*
X135622380Y-75342857D02*
X135146190Y-75676190D01*
X135622380Y-75914285D02*
X134622380Y-75914285D01*
X134622380Y-75533333D01*
X134670000Y-75438095D01*
X134717619Y-75390476D01*
X134812857Y-75342857D01*
X134955714Y-75342857D01*
X135050952Y-75390476D01*
X135098571Y-75438095D01*
X135146190Y-75533333D01*
X135146190Y-75914285D01*
X134955714Y-74485714D02*
X135622380Y-74485714D01*
X134574761Y-74723809D02*
X135289047Y-74961904D01*
X135289047Y-74342857D01*
X135622380Y-73914285D02*
X135622380Y-73723809D01*
X135574761Y-73628571D01*
X135527142Y-73580952D01*
X135384285Y-73485714D01*
X135193809Y-73438095D01*
X134812857Y-73438095D01*
X134717619Y-73485714D01*
X134670000Y-73533333D01*
X134622380Y-73628571D01*
X134622380Y-73819047D01*
X134670000Y-73914285D01*
X134717619Y-73961904D01*
X134812857Y-74009523D01*
X135050952Y-74009523D01*
X135146190Y-73961904D01*
X135193809Y-73914285D01*
X135241428Y-73819047D01*
X135241428Y-73628571D01*
X135193809Y-73533333D01*
X135146190Y-73485714D01*
X135050952Y-73438095D01*
G04 #@! TO.C,R50*
X135622380Y-78605357D02*
X135146190Y-78938690D01*
X135622380Y-79176785D02*
X134622380Y-79176785D01*
X134622380Y-78795833D01*
X134670000Y-78700595D01*
X134717619Y-78652976D01*
X134812857Y-78605357D01*
X134955714Y-78605357D01*
X135050952Y-78652976D01*
X135098571Y-78700595D01*
X135146190Y-78795833D01*
X135146190Y-79176785D01*
X134622380Y-77700595D02*
X134622380Y-78176785D01*
X135098571Y-78224404D01*
X135050952Y-78176785D01*
X135003333Y-78081547D01*
X135003333Y-77843452D01*
X135050952Y-77748214D01*
X135098571Y-77700595D01*
X135193809Y-77652976D01*
X135431904Y-77652976D01*
X135527142Y-77700595D01*
X135574761Y-77748214D01*
X135622380Y-77843452D01*
X135622380Y-78081547D01*
X135574761Y-78176785D01*
X135527142Y-78224404D01*
X134622380Y-77033928D02*
X134622380Y-76938690D01*
X134670000Y-76843452D01*
X134717619Y-76795833D01*
X134812857Y-76748214D01*
X135003333Y-76700595D01*
X135241428Y-76700595D01*
X135431904Y-76748214D01*
X135527142Y-76795833D01*
X135574761Y-76843452D01*
X135622380Y-76938690D01*
X135622380Y-77033928D01*
X135574761Y-77129166D01*
X135527142Y-77176785D01*
X135431904Y-77224404D01*
X135241428Y-77272023D01*
X135003333Y-77272023D01*
X134812857Y-77224404D01*
X134717619Y-77176785D01*
X134670000Y-77129166D01*
X134622380Y-77033928D01*
G04 #@! TO.C,R51*
X138494642Y-76022380D02*
X138161309Y-75546190D01*
X137923214Y-76022380D02*
X137923214Y-75022380D01*
X138304166Y-75022380D01*
X138399404Y-75070000D01*
X138447023Y-75117619D01*
X138494642Y-75212857D01*
X138494642Y-75355714D01*
X138447023Y-75450952D01*
X138399404Y-75498571D01*
X138304166Y-75546190D01*
X137923214Y-75546190D01*
X139399404Y-75022380D02*
X138923214Y-75022380D01*
X138875595Y-75498571D01*
X138923214Y-75450952D01*
X139018452Y-75403333D01*
X139256547Y-75403333D01*
X139351785Y-75450952D01*
X139399404Y-75498571D01*
X139447023Y-75593809D01*
X139447023Y-75831904D01*
X139399404Y-75927142D01*
X139351785Y-75974761D01*
X139256547Y-76022380D01*
X139018452Y-76022380D01*
X138923214Y-75974761D01*
X138875595Y-75927142D01*
X140399404Y-76022380D02*
X139827976Y-76022380D01*
X140113690Y-76022380D02*
X140113690Y-75022380D01*
X140018452Y-75165238D01*
X139923214Y-75260476D01*
X139827976Y-75308095D01*
G04 #@! TO.C,R52*
X138494642Y-74272380D02*
X138161309Y-73796190D01*
X137923214Y-74272380D02*
X137923214Y-73272380D01*
X138304166Y-73272380D01*
X138399404Y-73320000D01*
X138447023Y-73367619D01*
X138494642Y-73462857D01*
X138494642Y-73605714D01*
X138447023Y-73700952D01*
X138399404Y-73748571D01*
X138304166Y-73796190D01*
X137923214Y-73796190D01*
X139399404Y-73272380D02*
X138923214Y-73272380D01*
X138875595Y-73748571D01*
X138923214Y-73700952D01*
X139018452Y-73653333D01*
X139256547Y-73653333D01*
X139351785Y-73700952D01*
X139399404Y-73748571D01*
X139447023Y-73843809D01*
X139447023Y-74081904D01*
X139399404Y-74177142D01*
X139351785Y-74224761D01*
X139256547Y-74272380D01*
X139018452Y-74272380D01*
X138923214Y-74224761D01*
X138875595Y-74177142D01*
X139827976Y-73367619D02*
X139875595Y-73320000D01*
X139970833Y-73272380D01*
X140208928Y-73272380D01*
X140304166Y-73320000D01*
X140351785Y-73367619D01*
X140399404Y-73462857D01*
X140399404Y-73558095D01*
X140351785Y-73700952D01*
X139780357Y-74272380D01*
X140399404Y-74272380D01*
G04 #@! TO.C,R53*
X128394642Y-81632380D02*
X128061309Y-81156190D01*
X127823214Y-81632380D02*
X127823214Y-80632380D01*
X128204166Y-80632380D01*
X128299404Y-80680000D01*
X128347023Y-80727619D01*
X128394642Y-80822857D01*
X128394642Y-80965714D01*
X128347023Y-81060952D01*
X128299404Y-81108571D01*
X128204166Y-81156190D01*
X127823214Y-81156190D01*
X129299404Y-80632380D02*
X128823214Y-80632380D01*
X128775595Y-81108571D01*
X128823214Y-81060952D01*
X128918452Y-81013333D01*
X129156547Y-81013333D01*
X129251785Y-81060952D01*
X129299404Y-81108571D01*
X129347023Y-81203809D01*
X129347023Y-81441904D01*
X129299404Y-81537142D01*
X129251785Y-81584761D01*
X129156547Y-81632380D01*
X128918452Y-81632380D01*
X128823214Y-81584761D01*
X128775595Y-81537142D01*
X129680357Y-80632380D02*
X130299404Y-80632380D01*
X129966071Y-81013333D01*
X130108928Y-81013333D01*
X130204166Y-81060952D01*
X130251785Y-81108571D01*
X130299404Y-81203809D01*
X130299404Y-81441904D01*
X130251785Y-81537142D01*
X130204166Y-81584761D01*
X130108928Y-81632380D01*
X129823214Y-81632380D01*
X129727976Y-81584761D01*
X129680357Y-81537142D01*
G04 #@! TO.C,R54*
X128372143Y-79887381D02*
X128038810Y-79411191D01*
X127800715Y-79887381D02*
X127800715Y-78887381D01*
X128181667Y-78887381D01*
X128276905Y-78935001D01*
X128324524Y-78982620D01*
X128372143Y-79077858D01*
X128372143Y-79220715D01*
X128324524Y-79315953D01*
X128276905Y-79363572D01*
X128181667Y-79411191D01*
X127800715Y-79411191D01*
X129276905Y-78887381D02*
X128800715Y-78887381D01*
X128753096Y-79363572D01*
X128800715Y-79315953D01*
X128895953Y-79268334D01*
X129134048Y-79268334D01*
X129229286Y-79315953D01*
X129276905Y-79363572D01*
X129324524Y-79458810D01*
X129324524Y-79696905D01*
X129276905Y-79792143D01*
X129229286Y-79839762D01*
X129134048Y-79887381D01*
X128895953Y-79887381D01*
X128800715Y-79839762D01*
X128753096Y-79792143D01*
X130181667Y-79220715D02*
X130181667Y-79887381D01*
X129943572Y-78839762D02*
X129705477Y-79554048D01*
X130324524Y-79554048D01*
G04 #@! TO.C,R55*
X122044642Y-74622380D02*
X121711309Y-74146190D01*
X121473214Y-74622380D02*
X121473214Y-73622380D01*
X121854166Y-73622380D01*
X121949404Y-73670000D01*
X121997023Y-73717619D01*
X122044642Y-73812857D01*
X122044642Y-73955714D01*
X121997023Y-74050952D01*
X121949404Y-74098571D01*
X121854166Y-74146190D01*
X121473214Y-74146190D01*
X122949404Y-73622380D02*
X122473214Y-73622380D01*
X122425595Y-74098571D01*
X122473214Y-74050952D01*
X122568452Y-74003333D01*
X122806547Y-74003333D01*
X122901785Y-74050952D01*
X122949404Y-74098571D01*
X122997023Y-74193809D01*
X122997023Y-74431904D01*
X122949404Y-74527142D01*
X122901785Y-74574761D01*
X122806547Y-74622380D01*
X122568452Y-74622380D01*
X122473214Y-74574761D01*
X122425595Y-74527142D01*
X123901785Y-73622380D02*
X123425595Y-73622380D01*
X123377976Y-74098571D01*
X123425595Y-74050952D01*
X123520833Y-74003333D01*
X123758928Y-74003333D01*
X123854166Y-74050952D01*
X123901785Y-74098571D01*
X123949404Y-74193809D01*
X123949404Y-74431904D01*
X123901785Y-74527142D01*
X123854166Y-74574761D01*
X123758928Y-74622380D01*
X123520833Y-74622380D01*
X123425595Y-74574761D01*
X123377976Y-74527142D01*
G04 #@! TO.C,U1*
X103752380Y-85011904D02*
X104561904Y-85011904D01*
X104657142Y-84964285D01*
X104704761Y-84916666D01*
X104752380Y-84821428D01*
X104752380Y-84630952D01*
X104704761Y-84535714D01*
X104657142Y-84488095D01*
X104561904Y-84440476D01*
X103752380Y-84440476D01*
X104752380Y-83440476D02*
X104752380Y-84011904D01*
X104752380Y-83726190D02*
X103752380Y-83726190D01*
X103895238Y-83821428D01*
X103990476Y-83916666D01*
X104038095Y-84011904D01*
G04 #@! TO.C,U3*
X129902380Y-85011904D02*
X130711904Y-85011904D01*
X130807142Y-84964285D01*
X130854761Y-84916666D01*
X130902380Y-84821428D01*
X130902380Y-84630952D01*
X130854761Y-84535714D01*
X130807142Y-84488095D01*
X130711904Y-84440476D01*
X129902380Y-84440476D01*
X129902380Y-84059523D02*
X129902380Y-83440476D01*
X130283333Y-83773809D01*
X130283333Y-83630952D01*
X130330952Y-83535714D01*
X130378571Y-83488095D01*
X130473809Y-83440476D01*
X130711904Y-83440476D01*
X130807142Y-83488095D01*
X130854761Y-83535714D01*
X130902380Y-83630952D01*
X130902380Y-83916666D01*
X130854761Y-84011904D01*
X130807142Y-84059523D01*
G04 #@! TO.C,R56*
X118282380Y-86330357D02*
X117806190Y-86663690D01*
X118282380Y-86901785D02*
X117282380Y-86901785D01*
X117282380Y-86520833D01*
X117330000Y-86425595D01*
X117377619Y-86377976D01*
X117472857Y-86330357D01*
X117615714Y-86330357D01*
X117710952Y-86377976D01*
X117758571Y-86425595D01*
X117806190Y-86520833D01*
X117806190Y-86901785D01*
X117282380Y-85425595D02*
X117282380Y-85901785D01*
X117758571Y-85949404D01*
X117710952Y-85901785D01*
X117663333Y-85806547D01*
X117663333Y-85568452D01*
X117710952Y-85473214D01*
X117758571Y-85425595D01*
X117853809Y-85377976D01*
X118091904Y-85377976D01*
X118187142Y-85425595D01*
X118234761Y-85473214D01*
X118282380Y-85568452D01*
X118282380Y-85806547D01*
X118234761Y-85901785D01*
X118187142Y-85949404D01*
X117282380Y-84520833D02*
X117282380Y-84711309D01*
X117330000Y-84806547D01*
X117377619Y-84854166D01*
X117520476Y-84949404D01*
X117710952Y-84997023D01*
X118091904Y-84997023D01*
X118187142Y-84949404D01*
X118234761Y-84901785D01*
X118282380Y-84806547D01*
X118282380Y-84616071D01*
X118234761Y-84520833D01*
X118187142Y-84473214D01*
X118091904Y-84425595D01*
X117853809Y-84425595D01*
X117758571Y-84473214D01*
X117710952Y-84520833D01*
X117663333Y-84616071D01*
X117663333Y-84806547D01*
X117710952Y-84901785D01*
X117758571Y-84949404D01*
X117853809Y-84997023D01*
G04 #@! TO.C,R57*
X119882380Y-78392857D02*
X119406190Y-78726190D01*
X119882380Y-78964285D02*
X118882380Y-78964285D01*
X118882380Y-78583333D01*
X118930000Y-78488095D01*
X118977619Y-78440476D01*
X119072857Y-78392857D01*
X119215714Y-78392857D01*
X119310952Y-78440476D01*
X119358571Y-78488095D01*
X119406190Y-78583333D01*
X119406190Y-78964285D01*
X118882380Y-77488095D02*
X118882380Y-77964285D01*
X119358571Y-78011904D01*
X119310952Y-77964285D01*
X119263333Y-77869047D01*
X119263333Y-77630952D01*
X119310952Y-77535714D01*
X119358571Y-77488095D01*
X119453809Y-77440476D01*
X119691904Y-77440476D01*
X119787142Y-77488095D01*
X119834761Y-77535714D01*
X119882380Y-77630952D01*
X119882380Y-77869047D01*
X119834761Y-77964285D01*
X119787142Y-78011904D01*
X118882380Y-77107142D02*
X118882380Y-76440476D01*
X119882380Y-76869047D01*
G04 #@! TO.C,R58*
X99319642Y-81632380D02*
X98986309Y-81156190D01*
X98748214Y-81632380D02*
X98748214Y-80632380D01*
X99129166Y-80632380D01*
X99224404Y-80680000D01*
X99272023Y-80727619D01*
X99319642Y-80822857D01*
X99319642Y-80965714D01*
X99272023Y-81060952D01*
X99224404Y-81108571D01*
X99129166Y-81156190D01*
X98748214Y-81156190D01*
X100224404Y-80632380D02*
X99748214Y-80632380D01*
X99700595Y-81108571D01*
X99748214Y-81060952D01*
X99843452Y-81013333D01*
X100081547Y-81013333D01*
X100176785Y-81060952D01*
X100224404Y-81108571D01*
X100272023Y-81203809D01*
X100272023Y-81441904D01*
X100224404Y-81537142D01*
X100176785Y-81584761D01*
X100081547Y-81632380D01*
X99843452Y-81632380D01*
X99748214Y-81584761D01*
X99700595Y-81537142D01*
X100843452Y-81060952D02*
X100748214Y-81013333D01*
X100700595Y-80965714D01*
X100652976Y-80870476D01*
X100652976Y-80822857D01*
X100700595Y-80727619D01*
X100748214Y-80680000D01*
X100843452Y-80632380D01*
X101033928Y-80632380D01*
X101129166Y-80680000D01*
X101176785Y-80727619D01*
X101224404Y-80822857D01*
X101224404Y-80870476D01*
X101176785Y-80965714D01*
X101129166Y-81013333D01*
X101033928Y-81060952D01*
X100843452Y-81060952D01*
X100748214Y-81108571D01*
X100700595Y-81156190D01*
X100652976Y-81251428D01*
X100652976Y-81441904D01*
X100700595Y-81537142D01*
X100748214Y-81584761D01*
X100843452Y-81632380D01*
X101033928Y-81632380D01*
X101129166Y-81584761D01*
X101176785Y-81537142D01*
X101224404Y-81441904D01*
X101224404Y-81251428D01*
X101176785Y-81156190D01*
X101129166Y-81108571D01*
X101033928Y-81060952D01*
G04 #@! TO.C,R59*
X99319642Y-79882380D02*
X98986309Y-79406190D01*
X98748214Y-79882380D02*
X98748214Y-78882380D01*
X99129166Y-78882380D01*
X99224404Y-78930000D01*
X99272023Y-78977619D01*
X99319642Y-79072857D01*
X99319642Y-79215714D01*
X99272023Y-79310952D01*
X99224404Y-79358571D01*
X99129166Y-79406190D01*
X98748214Y-79406190D01*
X100224404Y-78882380D02*
X99748214Y-78882380D01*
X99700595Y-79358571D01*
X99748214Y-79310952D01*
X99843452Y-79263333D01*
X100081547Y-79263333D01*
X100176785Y-79310952D01*
X100224404Y-79358571D01*
X100272023Y-79453809D01*
X100272023Y-79691904D01*
X100224404Y-79787142D01*
X100176785Y-79834761D01*
X100081547Y-79882380D01*
X99843452Y-79882380D01*
X99748214Y-79834761D01*
X99700595Y-79787142D01*
X100748214Y-79882380D02*
X100938690Y-79882380D01*
X101033928Y-79834761D01*
X101081547Y-79787142D01*
X101176785Y-79644285D01*
X101224404Y-79453809D01*
X101224404Y-79072857D01*
X101176785Y-78977619D01*
X101129166Y-78930000D01*
X101033928Y-78882380D01*
X100843452Y-78882380D01*
X100748214Y-78930000D01*
X100700595Y-78977619D01*
X100652976Y-79072857D01*
X100652976Y-79310952D01*
X100700595Y-79406190D01*
X100748214Y-79453809D01*
X100843452Y-79501428D01*
X101033928Y-79501428D01*
X101129166Y-79453809D01*
X101176785Y-79406190D01*
X101224404Y-79310952D01*
G04 #@! TO.C,R61*
X167622380Y-78342857D02*
X167146190Y-78676190D01*
X167622380Y-78914285D02*
X166622380Y-78914285D01*
X166622380Y-78533333D01*
X166670000Y-78438095D01*
X166717619Y-78390476D01*
X166812857Y-78342857D01*
X166955714Y-78342857D01*
X167050952Y-78390476D01*
X167098571Y-78438095D01*
X167146190Y-78533333D01*
X167146190Y-78914285D01*
X166622380Y-77485714D02*
X166622380Y-77676190D01*
X166670000Y-77771428D01*
X166717619Y-77819047D01*
X166860476Y-77914285D01*
X167050952Y-77961904D01*
X167431904Y-77961904D01*
X167527142Y-77914285D01*
X167574761Y-77866666D01*
X167622380Y-77771428D01*
X167622380Y-77580952D01*
X167574761Y-77485714D01*
X167527142Y-77438095D01*
X167431904Y-77390476D01*
X167193809Y-77390476D01*
X167098571Y-77438095D01*
X167050952Y-77485714D01*
X167003333Y-77580952D01*
X167003333Y-77771428D01*
X167050952Y-77866666D01*
X167098571Y-77914285D01*
X167193809Y-77961904D01*
X167622380Y-76438095D02*
X167622380Y-77009523D01*
X167622380Y-76723809D02*
X166622380Y-76723809D01*
X166765238Y-76819047D01*
X166860476Y-76914285D01*
X166908095Y-77009523D01*
G04 #@! TO.C,R64*
X144482380Y-86342857D02*
X144006190Y-86676190D01*
X144482380Y-86914285D02*
X143482380Y-86914285D01*
X143482380Y-86533333D01*
X143530000Y-86438095D01*
X143577619Y-86390476D01*
X143672857Y-86342857D01*
X143815714Y-86342857D01*
X143910952Y-86390476D01*
X143958571Y-86438095D01*
X144006190Y-86533333D01*
X144006190Y-86914285D01*
X143482380Y-85485714D02*
X143482380Y-85676190D01*
X143530000Y-85771428D01*
X143577619Y-85819047D01*
X143720476Y-85914285D01*
X143910952Y-85961904D01*
X144291904Y-85961904D01*
X144387142Y-85914285D01*
X144434761Y-85866666D01*
X144482380Y-85771428D01*
X144482380Y-85580952D01*
X144434761Y-85485714D01*
X144387142Y-85438095D01*
X144291904Y-85390476D01*
X144053809Y-85390476D01*
X143958571Y-85438095D01*
X143910952Y-85485714D01*
X143863333Y-85580952D01*
X143863333Y-85771428D01*
X143910952Y-85866666D01*
X143958571Y-85914285D01*
X144053809Y-85961904D01*
X143815714Y-84533333D02*
X144482380Y-84533333D01*
X143434761Y-84771428D02*
X144149047Y-85009523D01*
X144149047Y-84390476D01*
G04 #@! TO.C,R65*
X141622380Y-78342857D02*
X141146190Y-78676190D01*
X141622380Y-78914285D02*
X140622380Y-78914285D01*
X140622380Y-78533333D01*
X140670000Y-78438095D01*
X140717619Y-78390476D01*
X140812857Y-78342857D01*
X140955714Y-78342857D01*
X141050952Y-78390476D01*
X141098571Y-78438095D01*
X141146190Y-78533333D01*
X141146190Y-78914285D01*
X140622380Y-77485714D02*
X140622380Y-77676190D01*
X140670000Y-77771428D01*
X140717619Y-77819047D01*
X140860476Y-77914285D01*
X141050952Y-77961904D01*
X141431904Y-77961904D01*
X141527142Y-77914285D01*
X141574761Y-77866666D01*
X141622380Y-77771428D01*
X141622380Y-77580952D01*
X141574761Y-77485714D01*
X141527142Y-77438095D01*
X141431904Y-77390476D01*
X141193809Y-77390476D01*
X141098571Y-77438095D01*
X141050952Y-77485714D01*
X141003333Y-77580952D01*
X141003333Y-77771428D01*
X141050952Y-77866666D01*
X141098571Y-77914285D01*
X141193809Y-77961904D01*
X140622380Y-76485714D02*
X140622380Y-76961904D01*
X141098571Y-77009523D01*
X141050952Y-76961904D01*
X141003333Y-76866666D01*
X141003333Y-76628571D01*
X141050952Y-76533333D01*
X141098571Y-76485714D01*
X141193809Y-76438095D01*
X141431904Y-76438095D01*
X141527142Y-76485714D01*
X141574761Y-76533333D01*
X141622380Y-76628571D01*
X141622380Y-76866666D01*
X141574761Y-76961904D01*
X141527142Y-77009523D01*
G04 #@! TO.C,R66*
X125144642Y-81632380D02*
X124811309Y-81156190D01*
X124573214Y-81632380D02*
X124573214Y-80632380D01*
X124954166Y-80632380D01*
X125049404Y-80680000D01*
X125097023Y-80727619D01*
X125144642Y-80822857D01*
X125144642Y-80965714D01*
X125097023Y-81060952D01*
X125049404Y-81108571D01*
X124954166Y-81156190D01*
X124573214Y-81156190D01*
X126001785Y-80632380D02*
X125811309Y-80632380D01*
X125716071Y-80680000D01*
X125668452Y-80727619D01*
X125573214Y-80870476D01*
X125525595Y-81060952D01*
X125525595Y-81441904D01*
X125573214Y-81537142D01*
X125620833Y-81584761D01*
X125716071Y-81632380D01*
X125906547Y-81632380D01*
X126001785Y-81584761D01*
X126049404Y-81537142D01*
X126097023Y-81441904D01*
X126097023Y-81203809D01*
X126049404Y-81108571D01*
X126001785Y-81060952D01*
X125906547Y-81013333D01*
X125716071Y-81013333D01*
X125620833Y-81060952D01*
X125573214Y-81108571D01*
X125525595Y-81203809D01*
X126954166Y-80632380D02*
X126763690Y-80632380D01*
X126668452Y-80680000D01*
X126620833Y-80727619D01*
X126525595Y-80870476D01*
X126477976Y-81060952D01*
X126477976Y-81441904D01*
X126525595Y-81537142D01*
X126573214Y-81584761D01*
X126668452Y-81632380D01*
X126858928Y-81632380D01*
X126954166Y-81584761D01*
X127001785Y-81537142D01*
X127049404Y-81441904D01*
X127049404Y-81203809D01*
X127001785Y-81108571D01*
X126954166Y-81060952D01*
X126858928Y-81013333D01*
X126668452Y-81013333D01*
X126573214Y-81060952D01*
X126525595Y-81108571D01*
X126477976Y-81203809D01*
G04 #@! TO.C,R67*
X125157142Y-79882380D02*
X124823809Y-79406190D01*
X124585714Y-79882380D02*
X124585714Y-78882380D01*
X124966666Y-78882380D01*
X125061904Y-78930000D01*
X125109523Y-78977619D01*
X125157142Y-79072857D01*
X125157142Y-79215714D01*
X125109523Y-79310952D01*
X125061904Y-79358571D01*
X124966666Y-79406190D01*
X124585714Y-79406190D01*
X126014285Y-78882380D02*
X125823809Y-78882380D01*
X125728571Y-78930000D01*
X125680952Y-78977619D01*
X125585714Y-79120476D01*
X125538095Y-79310952D01*
X125538095Y-79691904D01*
X125585714Y-79787142D01*
X125633333Y-79834761D01*
X125728571Y-79882380D01*
X125919047Y-79882380D01*
X126014285Y-79834761D01*
X126061904Y-79787142D01*
X126109523Y-79691904D01*
X126109523Y-79453809D01*
X126061904Y-79358571D01*
X126014285Y-79310952D01*
X125919047Y-79263333D01*
X125728571Y-79263333D01*
X125633333Y-79310952D01*
X125585714Y-79358571D01*
X125538095Y-79453809D01*
X126442857Y-78882380D02*
X127109523Y-78882380D01*
X126680952Y-79882380D01*
G04 #@! TD*
M02*
