M48
;DRILL file {KiCad (5.0.0)} date 05/18/19 10:01:52
;FORMAT={-:-/ absolute / inch / decimal}
FMAT,2
INCH,TZ
T1C0.0118
T2C0.0157
T3C0.0315
T4C0.0394
T5C0.0472
T6C0.0512
%
G90
G05
M72
T1
X5.1929Y-3.2657
X5.1929Y-3.3169
X5.1929Y-3.3681
X5.263Y-3.2657
X5.263Y-3.3169
X5.263Y-3.3681
X5.3331Y-3.2657
X5.3331Y-3.3169
X5.3331Y-3.3681
X5.4031Y-3.2657
X5.4031Y-3.3169
X5.4031Y-3.3681
X5.4732Y-3.2657
X5.4732Y-3.3169
X5.4732Y-3.3681
X5.5433Y-3.2657
X5.5433Y-3.3169
X5.5433Y-3.3681
X4.1634Y-3.2657
X4.1634Y-3.3169
X4.1634Y-3.3681
X4.2335Y-3.2657
X4.2335Y-3.3169
X4.2335Y-3.3681
X4.3035Y-3.2657
X4.3035Y-3.3169
X4.3035Y-3.3681
X4.3736Y-3.2657
X4.3736Y-3.3169
X4.3736Y-3.3681
X4.4437Y-3.2657
X4.4437Y-3.3169
X4.4437Y-3.3681
X4.5138Y-3.2657
X4.5138Y-3.3169
X4.5138Y-3.3681
X6.2185Y-3.2657
X6.2185Y-3.3169
X6.2185Y-3.3681
X6.2886Y-3.2657
X6.2886Y-3.3169
X6.2886Y-3.3681
X6.3587Y-3.2657
X6.3587Y-3.3169
X6.3587Y-3.3681
X6.4287Y-3.2657
X6.4287Y-3.3169
X6.4287Y-3.3681
X6.4988Y-3.2657
X6.4988Y-3.3169
X6.4988Y-3.3681
X6.5689Y-3.2657
X6.5689Y-3.3169
X6.5689Y-3.3681
T2
X3.6909Y-1.9783
X3.6909Y-2.0276
X3.6909Y-2.9134
X3.6909Y-2.9626
X3.6909Y-4.3406
X3.6909Y-4.3898
X3.7106Y-3.2677
X3.7106Y-3.3169
X3.7106Y-3.3661
X3.7106Y-3.4154
X3.7402Y-1.9783
X3.7402Y-2.0276
X3.7402Y-2.9134
X3.7402Y-2.9626
X3.7402Y-4.3406
X3.7402Y-4.3898
X3.75Y-3.6024
X3.75Y-3.6614
X3.7598Y-3.2677
X3.7598Y-3.3169
X3.7598Y-3.3661
X3.7598Y-3.4154
X3.8091Y-3.6614
X3.8484Y-3.6614
X3.8976Y-3.6024
X3.8976Y-3.6614
X3.9469Y-3.6024
X3.9469Y-3.6614
X3.9567Y-3.2677
X3.9567Y-3.3169
X3.9567Y-3.3661
X3.9764Y-2.5295
X3.9764Y-2.5787
X3.9764Y-2.7461
X3.9764Y-3.002
X3.9862Y-2.126
X3.9862Y-2.2047
X3.9961Y-3.6024
X3.9961Y-3.6614
X4.0059Y-3.2677
X4.0059Y-3.3169
X4.0059Y-3.3661
X4.0256Y-2.5295
X4.0256Y-2.5787
X4.0256Y-2.7461
X4.0354Y-3.1791
X4.0453Y-3.6319
X4.0453Y-4.2028
X4.0551Y-2.126
X4.0551Y-2.2047
X4.0551Y-3.2677
X4.0551Y-3.3169
X4.0551Y-3.3661
X4.0846Y-3.7205
X4.0846Y-3.7697
X4.0846Y-3.8189
X4.0846Y-3.8681
X4.0945Y-4.2028
X4.1043Y-3.2677
X4.1043Y-3.3169
X4.1043Y-3.3661
X4.1437Y-4.2028
X4.1535Y-2.7461
X4.1732Y-2.8346
X4.1929Y-4.2028
X4.2028Y-2.7461
X4.2126Y-2.9134
X4.2126Y-2.9626
X4.2421Y-4.2028
X4.2618Y-2.9134
X4.2618Y-2.9626
X4.2717Y-2.6083
X4.311Y-2.6181
X4.3455Y-3.1496
X4.3602Y-2.8937
X4.3602Y-2.9429
X4.439Y-3.5335
X4.439Y-3.5728
X4.4577Y-3.4843
X4.4882Y-3.5335
X4.4882Y-3.5728
X4.498Y-3.4843
X4.5472Y-2.815
X4.5472Y-3.248
X4.5768Y-3.1299
X4.5768Y-3.4646
X4.5866Y-2.9882
X4.5866Y-3.0709
X4.5866Y-3.7205
X4.5866Y-3.7697
X4.5866Y-3.8189
X4.5866Y-3.8681
X4.5965Y-2.9035
X4.6076Y-3.1704
X4.6161Y-3.4449
X4.6752Y-3.6024
X4.6752Y-3.6614
X4.7244Y-3.6024
X4.7244Y-3.6614
X4.7343Y-2.3917
X4.7343Y-2.4311
X4.7539Y-2.2146
X4.7539Y-2.2933
X4.7736Y-2.8071
X4.7736Y-3.6024
X4.7736Y-3.6614
X4.7835Y-3.189
X4.7835Y-3.2382
X4.7835Y-3.2874
X4.7835Y-3.3366
X4.7835Y-3.3858
X4.7835Y-3.435
X4.7835Y-3.4843
X4.7933Y-3.1102
X4.8228Y-3.6614
X4.872Y-3.6614
X4.8819Y-4.2913
X4.8819Y-4.3406
X4.9114Y-2.2146
X4.9114Y-2.2933
X4.9213Y-3.6024
X4.9213Y-3.6614
X4.9311Y-2.8937
X4.9311Y-2.9429
X4.9606Y-2.6476
X4.9606Y-3.6024
X4.9606Y-3.6614
X4.9803Y-2.8937
X4.9803Y-2.9429
X4.9902Y-2.9921
X4.9902Y-3.2677
X4.9902Y-3.3169
X4.9902Y-3.3661
X5.0098Y-2.5984
X5.0098Y-2.6476
X5.0098Y-3.6024
X5.0098Y-3.6614
X5.0394Y-3.2677
X5.0394Y-3.3169
X5.0394Y-3.3661
X5.0394Y-3.6319
X5.0492Y-3.1791
X5.0689Y-4.1929
X5.0787Y-3.5433
X5.0886Y-2.2441
X5.0886Y-3.2677
X5.0886Y-3.3169
X5.0886Y-3.3661
X5.1181Y-3.7205
X5.1181Y-3.7697
X5.1181Y-3.8189
X5.1181Y-3.8681
X5.1181Y-4.1929
X5.1378Y-3.2677
X5.1378Y-3.3169
X5.1378Y-3.3661
X5.1575Y-3.2087
X5.1673Y-2.2441
X5.1673Y-4.1929
X5.2165Y-4.1929
X5.2657Y-2.126
X5.2657Y-2.2047
X5.2657Y-4.1929
X5.2756Y-3.5433
X5.3051Y-2.5394
X5.3051Y-2.7067
X5.315Y-4.1929
X5.3199Y-3.0992
X5.3445Y-2.6772
X5.3543Y-2.5394
X5.3642Y-4.1929
X5.374Y-2.8346
X5.4035Y-2.874
X5.4134Y-4.1929
X5.4528Y-2.8346
X5.4626Y-4.1929
X5.4724Y-3.5335
X5.4724Y-3.5728
X5.4921Y-3.4843
X5.5098Y-3.1594
X5.5118Y-3.5728
X5.5118Y-3.5335
X5.5118Y-4.1929
X5.5315Y-3.4843
X5.561Y-2.5394
X5.561Y-2.9921
X5.561Y-3.061
X5.5807Y-3.248
X5.6004Y-3.1496
X5.6102Y-2.5394
X5.6102Y-3.5433
X5.6201Y-3.4547
X5.6201Y-3.7205
X5.6201Y-3.7697
X5.6201Y-3.8189
X5.6201Y-3.8681
X5.6201Y-3.9173
X5.6496Y-2.6673
X5.6496Y-2.8051
X5.6496Y-2.9921
X5.6496Y-3.376
X5.6594Y-3.4252
X5.689Y-3.1496
X5.7185Y-2.5394
X5.7382Y-4.2913
X5.7382Y-4.3406
X5.7579Y-2.9921
X5.7579Y-3.0413
X5.7776Y-3.6024
X5.7776Y-3.6614
X5.7874Y-4.2913
X5.7874Y-4.3406
X5.7972Y-2.8346
X5.8071Y-3.2677
X5.8071Y-3.3169
X5.8071Y-3.3661
X5.8071Y-3.4154
X5.8071Y-3.4646
X5.8169Y-2.5394
X5.8169Y-3.1004
X5.8268Y-3.6024
X5.8268Y-3.6614
X5.8563Y-2.9921
X5.8563Y-3.0413
X5.8661Y-2.5394
X5.876Y-3.6614
X5.9154Y-2.5394
X5.9154Y-2.8346
X5.9252Y-3.6024
X5.9252Y-3.6614
X5.9646Y-2.9921
X5.9646Y-2.6673
X5.9646Y-2.8346
X5.9646Y-2.9429
X5.9744Y-3.6024
X5.9744Y-3.6614
X5.9843Y-2.9035
X6.0236Y-3.6024
X6.0236Y-3.6614
X6.0433Y-2.9429
X6.063Y-3.2677
X6.063Y-3.3169
X6.063Y-3.3661
X6.0728Y-3.1791
X6.0728Y-3.6024
X6.0728Y-3.6614
X6.0827Y-2.9823
X6.1024Y-2.9134
X6.1122Y-3.2677
X6.1122Y-3.3169
X6.1122Y-3.3661
X6.122Y-3.6024
X6.122Y-3.6614
X6.122Y-3.7303
X6.122Y-3.7795
X6.122Y-3.8287
X6.122Y-3.878
X6.1319Y-2.9823
X6.1614Y-3.2677
X6.1614Y-3.3169
X6.1614Y-3.3661
X6.1811Y-2.5
X6.2598Y-3.0315
X6.2598Y-3.0709
X6.2992Y-2.7953
X6.3287Y-2.9823
X6.3386Y-3.1004
X6.3484Y-2.5
X6.3484Y-2.5492
X6.3484Y-2.7953
X6.3484Y-2.8445
X6.3976Y-2.5
X6.3976Y-2.5492
X6.3976Y-2.7953
X6.3976Y-2.8445
X6.437Y-2.3917
X6.437Y-2.4409
X6.437Y-4.2913
X6.437Y-4.3406
X6.4469Y-2.5
X6.4469Y-2.5492
X6.4469Y-2.7953
X6.4469Y-2.8445
X6.4469Y-2.8799
X6.4764Y-2.0472
X6.4961Y-2.1161
X6.4961Y-2.5
X6.4961Y-2.5492
X6.4961Y-2.7953
X6.4961Y-2.8445
X6.4961Y-3.5335
X6.4961Y-3.5728
X6.5059Y-1.9783
X6.5128Y-3.4843
X6.5354Y-3.1496
X6.5453Y-2.5
X6.5453Y-2.5492
X6.5453Y-2.7953
X6.5453Y-2.8445
X6.5453Y-3.5335
X6.5453Y-3.5728
X6.5482Y-3.4843
X6.5748Y-1.9587
X6.5748Y-2.1457
X6.5846Y-3.0366
X6.5945Y-2.5
X6.5945Y-2.5492
X6.5945Y-2.5984
X6.6043Y-3.2579
X6.6339Y-3.1496
X6.6437Y-1.9783
X6.6437Y-2.1161
X6.6437Y-2.5492
X6.6437Y-2.5984
X6.6437Y-2.6476
X6.6437Y-2.6969
X6.6437Y-2.7461
X6.6437Y-2.7953
X6.6437Y-2.8445
X6.6437Y-3.4646
X6.6437Y-3.7303
X6.6437Y-3.7795
X6.6437Y-3.8287
X6.6437Y-3.878
X6.6634Y-4.3406
X6.6634Y-4.3898
X6.6732Y-2.0472
X6.7126Y-4.3406
X6.7126Y-4.3898
T3
X4.8087Y-2.415
X4.9087Y-2.415
X4.9685Y-4.315
X5.0087Y-2.415
X5.0685Y-4.315
X5.1087Y-2.415
X5.1685Y-4.315
X5.2087Y-2.415
X5.2685Y-4.315
X5.3087Y-2.415
X5.3685Y-4.315
X5.4087Y-2.415
X5.4685Y-4.315
X5.5087Y-2.415
X5.5685Y-4.315
X5.6685Y-2.415
X5.6685Y-4.315
X5.7685Y-2.415
X5.8685Y-2.415
X5.8685Y-4.315
X5.9685Y-2.415
X5.9685Y-4.315
X6.0685Y-2.415
X6.0685Y-4.315
X6.1685Y-2.415
X6.1685Y-4.315
X6.2685Y-2.415
X6.2685Y-4.315
X6.3685Y-2.415
X6.3685Y-4.315
T4
X6.2598Y-2.5433
X6.2598Y-2.6433
X6.2598Y-2.7433
X3.9016Y-2.5472
X3.9016Y-2.6472
X3.9016Y-2.7472
X6.1102Y-2.5433
X6.1102Y-2.6433
X6.1102Y-2.7433
X5.2283Y-2.5472
X5.2283Y-2.6472
X5.2283Y-2.7472
X3.752Y-2.5472
X3.752Y-2.6472
X3.752Y-2.7472
X5.0787Y-2.5472
X5.0787Y-2.6472
X5.0787Y-2.7472
T5
X4.9902Y-2.1654
X5.128Y-2.1654
X5.9843Y-2.1654
X6.122Y-2.1654
X6.2598Y-2.1654
X6.3976Y-2.1654
X3.7598Y-2.1654
X3.8976Y-2.1654
X5.122Y-4.0965
X5.2598Y-4.0965
X5.3976Y-4.0965
X5.5354Y-4.0965
X5.3543Y-2.1654
X5.4921Y-2.1654
X5.6299Y-2.1654
X5.7677Y-2.1654
X4.0866Y-4.0965
X4.2244Y-4.0965
X4.3622Y-4.0965
X4.5Y-4.0965
X6.1654Y-4.0965
X6.3031Y-4.0965
X6.4409Y-4.0965
X6.5787Y-4.0965
T6
X4.1575Y-2.1693
X4.1575Y-2.6496
X4.3937Y-2.7283
X4.6299Y-2.1693
X4.6299Y-2.6496
T0
M30
