G04 #@! TF.GenerationSoftware,KiCad,Pcbnew,(5.0.0)*
G04 #@! TF.CreationDate,2019-05-18T10:04:22+12:00*
G04 #@! TF.ProjectId,CNC Shield,434E4320536869656C642E6B69636164,rev?*
G04 #@! TF.SameCoordinates,Original*
G04 #@! TF.FileFunction,Soldermask,Bot*
G04 #@! TF.FilePolarity,Negative*
%FSLAX46Y46*%
G04 Gerber Fmt 4.6, Leading zero omitted, Abs format (unit mm)*
G04 Created by KiCad (PCBNEW (5.0.0)) date 05/18/19 10:04:22*
%MOMM*%
%LPD*%
G01*
G04 APERTURE LIST*
%ADD10O,2.000000X2.000000*%
%ADD11R,2.000000X2.000000*%
%ADD12R,2.800000X2.800000*%
%ADD13C,2.800000*%
%ADD14R,2.100000X2.100000*%
%ADD15O,2.100000X2.100000*%
%ADD16R,2.900000X2.900000*%
%ADD17O,2.900000X2.900000*%
G04 APERTURE END LIST*
D10*
G04 #@! TO.C,A1*
X124680000Y-61340000D03*
X122140000Y-61340000D03*
D11*
X126200000Y-109600000D03*
D10*
X156680000Y-61340000D03*
X128740000Y-109600000D03*
X154140000Y-61340000D03*
X131280000Y-109600000D03*
X151600000Y-61340000D03*
X133820000Y-109600000D03*
X149060000Y-61340000D03*
X136360000Y-109600000D03*
X146520000Y-61340000D03*
X138900000Y-109600000D03*
X143980000Y-61340000D03*
X141440000Y-109600000D03*
X139920000Y-61340000D03*
X143980000Y-109600000D03*
X137380000Y-61340000D03*
X149060000Y-109600000D03*
X134840000Y-61340000D03*
X151600000Y-109600000D03*
X132300000Y-61340000D03*
X154140000Y-109600000D03*
X129760000Y-61340000D03*
X156680000Y-109600000D03*
X127220000Y-61340000D03*
X159220000Y-109600000D03*
X161760000Y-109600000D03*
X161760000Y-61340000D03*
X159220000Y-61340000D03*
G04 #@! TD*
D12*
G04 #@! TO.C,J2*
X114300000Y-104050000D03*
D13*
X110800000Y-104050000D03*
X107300000Y-104050000D03*
X103800000Y-104050000D03*
G04 #@! TD*
D14*
G04 #@! TO.C,eJ7*
X95300000Y-64700000D03*
D15*
X95300000Y-67240000D03*
X95300000Y-69780000D03*
G04 #@! TD*
D14*
G04 #@! TO.C,J8*
X99100000Y-64700000D03*
D15*
X99100000Y-67240000D03*
X99100000Y-69780000D03*
G04 #@! TD*
D13*
G04 #@! TO.C,J16*
X156600000Y-104050000D03*
X160100000Y-104050000D03*
X163600000Y-104050000D03*
D12*
X167100000Y-104050000D03*
G04 #@! TD*
D15*
G04 #@! TO.C,J21*
X155200000Y-69680000D03*
X155200000Y-67140000D03*
D14*
X155200000Y-64600000D03*
G04 #@! TD*
D15*
G04 #@! TO.C,J22*
X159000000Y-69680000D03*
X159000000Y-67140000D03*
D14*
X159000000Y-64600000D03*
G04 #@! TD*
D12*
G04 #@! TO.C,J30*
X140600000Y-104050000D03*
D13*
X137100000Y-104050000D03*
X133600000Y-104050000D03*
X130100000Y-104050000D03*
G04 #@! TD*
D14*
G04 #@! TO.C,J35*
X129000000Y-64700000D03*
D15*
X129000000Y-67240000D03*
X129000000Y-69780000D03*
G04 #@! TD*
D14*
G04 #@! TO.C,J36*
X132800000Y-64700000D03*
D15*
X132800000Y-67240000D03*
X132800000Y-69780000D03*
G04 #@! TD*
D13*
G04 #@! TO.C,J43*
X130250000Y-55000000D03*
D12*
X126750000Y-55000000D03*
G04 #@! TD*
G04 #@! TO.C,J44*
X136000000Y-55000000D03*
D13*
X139500000Y-55000000D03*
X143000000Y-55000000D03*
X146500000Y-55000000D03*
G04 #@! TD*
G04 #@! TO.C,J45*
X162500000Y-55000000D03*
X159000000Y-55000000D03*
X155500000Y-55000000D03*
D12*
X152000000Y-55000000D03*
G04 #@! TD*
G04 #@! TO.C,J46*
X95500000Y-55000000D03*
D13*
X99000000Y-55000000D03*
G04 #@! TD*
D16*
G04 #@! TO.C,K1*
X111600000Y-69300000D03*
D17*
X117600000Y-67300000D03*
X117600000Y-55100000D03*
X105600000Y-55100000D03*
X105600000Y-67300000D03*
G04 #@! TD*
M02*
